<?xml version="1.0" standalone="no"?>
<!DOCTYPE svg PUBLIC "-//W3C//DTD SVG 1.1//EN" "http://www.w3.org/Graphics/SVG/1.1/DTD/svg11.dtd" >
<svg xmlns="http://www.w3.org/2000/svg">
<metadata>
This is a custom SVG webfont generated by Font Squirrel.
Copyright   :  2000 Daniel Midgley fontormaccom
</metadata>
<defs>
<font id="PerspectiveSansItalic" horiz-adv-x="1215" >
<font-face units-per-em="2048" ascent="1638" descent="-410" />
<missing-glyph horiz-adv-x="532" />
<glyph unicode=" "  horiz-adv-x="532" />
<glyph unicode="&#x09;" horiz-adv-x="532" />
<glyph unicode="&#xa0;" horiz-adv-x="532" />
<glyph unicode="!" horiz-adv-x="593" d="M57 108q0 58 47 97q36 31 81 31q11 0 22 -2q104 -17 104 -126q0 -57 -47 -96q-36 -31 -81 -31q-10 0 -21 2q-105 19 -105 125zM158 384l66 457l115 650l181 15l-118 -665l-93 -443z" />
<glyph unicode="&#x22;" horiz-adv-x="636" d="M77 1175l2 280q2 100 83 126q17 6 34 6q70 0 83 -64v-9q0 -25 -23 -81l-122 -260zM396 1175l2 280q2 100 84 126q16 6 34 6q70 0 82 -64v-9q0 -25 -23 -81l-122 -260z" />
<glyph unicode="#" horiz-adv-x="1250" d="M118 298l24 149h179l53 299h-178l26 148h178l53 299l152 14l-56 -313h254l55 313l148 -14l-54 -299h178l-24 -148h-179l-53 -299h178l-26 -149h-178l-51 -283l-151 -15l53 298h-254l-53 -298l-147 15l51 283h-178zM471 447h253l54 299h-254z" />
<glyph unicode="$" horiz-adv-x="1011" d="M21 113l94 132q34 -19 68 -32q85 -34 166 -34h31l55 321h-20q-268 0 -268 233q0 36 9 76q19 100 138 185q113 81 247 103l22 126h148l-20 -128q80 -11 152 -38q60 -24 75 -41l-87 -130q-41 19 -169 57l-50 -291q264 -6 264 -199q0 -51 -18 -114q-66 -233 -356 -294 l-12 -77h-149l11 60h-35q-89 4 -193 38q-88 30 -103 47zM330 752q0 -51 30 -73q28 -23 102 -27l50 285q-95 -25 -112 -36q-57 -29 -65 -98q-5 -30 -5 -51zM532 207q77 27 104 53q45 36 55 108q4 34 4 54q0 76 -109 82z" />
<glyph unicode="%" horiz-adv-x="1394" d="M113 73l995 1081l113 -70l-1016 -1105zM164 878q0 118 96 206q96 85 217 85q96 0 162 -59q66 -60 66 -158q0 -119 -96 -213q-97 -96 -219 -96q-96 0 -160 70q-66 69 -66 165zM305 886q0 -47 30 -81q27 -34 74 -34q62 0 109 52q45 51 45 114q0 49 -30.5 83.5t-76.5 34.5 q-62 0 -107 -51q-44 -54 -44 -118zM699 224q0 123 98 221q95 96 219 96q100 0 164 -64q62 -64 62 -164q0 -126 -98 -228t-224 -102q-95 0 -158 71.5t-63 169.5zM841 234q0 -49 26 -85q25 -39 74 -39q67 0 114 61q44 59 44 127q0 51 -28 90q-27 36 -77 36q-65 0 -108 -60 q-45 -61 -45 -130z" />
<glyph unicode="&#x26;" horiz-adv-x="1493" d="M47 345q0 29 6 62q20 107 105 196q59 62 191 149q33 19 90 59q-132 160 -132 295q0 38 12 69q57 144 160 220q94 70 206 72h6q126 0 208 -85q72 -77 72 -197q0 -20 -2 -39q-8 -85 -121 -203q-75 -74 -155 -130l257 -336l237 204l99 -116l-251 -207l241 -271l-150 -128 l-214 275q-252 -238 -473 -238h-17q-170 8 -273 108q-102 101 -102 241zM232 388q0 -98 51 -162q62 -79 184 -81h4q127 0 338 213l-256 339q-134 -75 -183 -111q-134 -98 -138 -177v-21zM467 1126q0 -85 116 -193q218 115 226 205q2 12 2 23q0 57 -36 105q-40 53 -108 53h-5 q-74 -2 -134 -61q-61 -59 -61 -132z" />
<glyph unicode="'" horiz-adv-x="317" d="M77 1175l2 280q2 100 83 126q17 6 34 6q70 0 83 -64v-9q0 -25 -23 -81l-122 -260z" />
<glyph unicode="(" horiz-adv-x="694" d="M83 222q0 134 23 298q50 354 179 596q130 243 398 479l146 -70q-252 -222 -373 -448q-124 -227 -169 -557q-21 -154 -21 -280q0 -344 201 -715l-166 -78q-218 400 -218 775z" />
<glyph unicode=")" horiz-adv-x="694" d="M-122 -475q246 219 364 445q120 223 165 550q21 151 21 277q0 351 -209 728l171 70q219 -404 219 -782q0 -132 -21 -293q-47 -352 -177 -595q-130 -242 -396 -478z" />
<glyph unicode="*" horiz-adv-x="828" d="M89 1187l218 104l-181 104l91 125l163 -125l25 207h136l-47 -209l203 127l45 -125l-207 -104l170 -104l-89 -126l-158 126l-27 -224h-137l49 224l-209 -130z" />
<glyph unicode="+" horiz-adv-x="1011" d="M158 372l25 150h245l41 224h179l-41 -224h247l-25 -150l-248 2l-40 -225h-179l40 223h-244z" />
<glyph unicode="," horiz-adv-x="530" d="M69 -224l120 332q43 128 128 128q11 0 22 -2q108 -21 108 -102q0 -10 -2 -24q-8 -45 -69 -102l-231 -260z" />
<glyph unicode="-" horiz-adv-x="813" d="M158 484l25 148h473l-26 -148h-472z" />
<glyph unicode="." horiz-adv-x="466" d="M106 108q0 58 47 97q36 31 79 31q10 0 22 -2q106 -17 106 -126q0 -57 -47 -96q-36 -31 -81 -31q-10 0 -21 2q-105 17 -105 125z" />
<glyph unicode="/" horiz-adv-x="956" d="M-158 -266l1121 1861l153 -63l-1124 -1869z" />
<glyph unicode="0" horiz-adv-x="1435" d="M120 488q0 285 221.5 502t506.5 217q219 0 366 -140q147 -142 147 -362q0 -286 -221.5 -503t-507.5 -217q-221 0 -366 143q-146 140 -146 360zM298 504q0 -155 104 -254q102 -101 258 -101q204 0 362 162q156 162 156 366q0 158 -101 262q-101 105 -260 105 q-208 0 -364 -164q-155 -167 -155 -376z" />
<glyph unicode="1" horiz-adv-x="664" d="M187 1055l235 138h176l-208 -1193h-179l179 1020l-156 -98z" />
<glyph unicode="2" horiz-adv-x="1133" d="M41 0l28 149l285 200q213 153 327 273q156 160 156 270t-46.5 149t-170.5 39q-62 0 -169.5 -30t-169.5 -60l-27 144q191 87 387 87q188 0 268 -56q103 -70 103 -247q0 -351 -689 -769h580l-27 -149h-835z" />
<glyph unicode="3" horiz-adv-x="1079" d="M55 75l73 144q149 -95 294 -95q121 0 200 49q96 59 96 172q0 124 -84 173q-61 35 -185 35q-32 0 -93 -2q-62 -4 -88 -4l28 150l177 -4h9q121 0 197 46q101 60 101 179q0 157 -177 157q-115 0 -320 -85l-29 144q238 87 385 87q139 0 230 -87q90 -90 90 -229 q0 -183 -179 -283q106 -49 106 -224q0 -193 -134 -306q-126 -109 -326 -109q-166 0 -371 92z" />
<glyph unicode="4" horiz-adv-x="1099" d="M12 305l26 148l757 740h178l-130 -740h167l-26 -148h-167l-53 -305l-174 2l53 303h-631zM238 453h431l87 499z" />
<glyph unicode="5" horiz-adv-x="1101" d="M59 81l75 143q171 -100 297 -100q120 0 221 87q98 87 98 204q0 192 -164 192q-96 0 -303 -49l-102 96l140 539h642l-11 -149h-509l-89 -331q125 33 244 33q144 0 233 -81q87 -82 87 -224q0 -185 -168 -328q-160 -137 -350 -137q-162 0 -341 105z" />
<glyph unicode="6" horiz-adv-x="1135" d="M51 335q0 283 309 604q276 294 601 427l68 -128q-212 -90 -344 -186q-144 -105 -276 -277q83 40 194 40q163 0 275 -95q108 -98 108 -251q0 -32 -4 -64q-30 -177 -185 -297q-156 -118 -341 -123h-13q-160 0 -272 98q-120 100 -120 252zM219 335q0 -201 265 -201 q119 0 219 85q100 84 124 203q4 25 4 49q0 98 -77 153q-79 55 -183 55q-120 0 -215 -70q-104 -77 -128 -196q-9 -43 -9 -78z" />
<glyph unicode="7" horiz-adv-x="1022" d="M0 -92q130 237 360 559q241 334 455 577h-593l38 149h760l-10 -149q-187 -198 -463 -573q-266 -365 -419 -629z" />
<glyph unicode="8" horiz-adv-x="1099" d="M73 262q0 130 87 234q88 105 214 145q-150 54 -150 221q0 162 142 266q130 93 299 93q134 0 229 -58q114 -70 114 -194q0 -111 -65 -200q-65 -92 -168 -133q194 -59 194 -260q0 -183 -164 -297q-147 -100 -338 -100q-150 0 -260 66q-134 79 -134 217zM232 296 q0 -98 73 -149q63 -45 166 -45q119 0 220 64q112 74 112 188q0 79 -83 144q-79 60 -159 60q-114 0 -216 -74q-113 -79 -113 -188zM382 890q0 -75 65 -119q57 -41 134 -41q96 0 181 65q84 61 84 152q0 77 -66 120q-56 34 -137 34q-96 0 -174 -57q-87 -62 -87 -154z" />
<glyph unicode="9" horiz-adv-x="1135" d="M106 -30q211 89 343 186q145 104 277 277q-85 -41 -194 -41q-162 0 -272 98q-111 96 -111 247q0 32 4 66q32 177 190 298q151 117 336 122h14q159 0 274 -97q117 -102 117 -252q0 -284 -309 -606q-277 -294 -600 -426zM303 733q0 -101 83 -156q72 -49 179 -49 q118 0 221 75q100 72 121 192q7 38 7 69q0 209 -262 209q-120 0 -219 -83q-101 -85 -124 -204q-6 -28 -6 -53z" />
<glyph unicode=":" horiz-adv-x="466" d="M57 108q0 58 47 97q36 31 79 31q10 0 22 -2q106 -17 106 -126q0 -57 -47 -96q-36 -31 -81 -31q-10 0 -21 2q-105 19 -105 125zM156 662q0 58 47 96q35 32 78 32q11 0 22 -2q106 -17 106 -126q0 -57 -47 -95q-36 -32 -81 -32q-11 0 -21 2q-104 19 -104 125z" />
<glyph unicode=";" horiz-adv-x="530" d="M19 -224l121 332q43 128 128 128q11 0 22 -2q108 -21 108 -102q0 -10 -2 -24q-8 -45 -68 -102l-232 -260zM240 662q0 58 47 96q36 32 79 32q10 0 22 -2q106 -17 106 -126q0 -57 -47 -95q-36 -32 -81 -32q-10 0 -23 2q-103 19 -103 125z" />
<glyph unicode="&#x3c;" horiz-adv-x="1024" d="M160 460l25 143l675 296l32 -124l-555 -247l472 -258l-76 -121z" />
<glyph unicode="=" horiz-adv-x="943" d="M136 215l26 149h602l-25 -149h-603zM179 453l26 150h602l-25 -150h-603z" />
<glyph unicode="&#x3e;" horiz-adv-x="1024" d="M130 275l555 245l-470 258l77 121l572 -311l-25 -143l-675 -296z" />
<glyph unicode="?" horiz-adv-x="1058" d="M198 108q0 58 47 97q36 31 78 31q12 0 22 -2q106 -17 106 -126q0 -57 -46 -96q-37 -31 -82 -31q-10 0 -22 2q-103 19 -103 125zM222 1400q260 123 412 123q18 0 33 -3q153 -12 258 -99q101 -88 101 -216q0 -25 -4 -51q-26 -144 -144 -262q-61 -55 -222 -162 q-126 -82 -144 -136q-22 -53 -37 -119l-13 -70l-183 -21l19 98q3 30 23 97q31 104 152 199l218 153q118 93 146 197q6 24 6 47q0 85 -79 144q-73 51 -174 51q-166 0 -352 -110z" />
<glyph unicode="@" horiz-adv-x="1294" d="M94 433q0 270 213 445q197 163 475 163q434 0 434 -293q0 -197 -139 -320q-134 -117 -317 -117h-18l-86 4l6 15q-83 -23 -123 -23q-70 0 -126.5 58.5t-56.5 128.5q0 126 134 207q115 68 245 68q115 0 198 -15q-47 -171 -102 -332q260 125 260 304q0 111 -122 166 q-93 43 -217 43q-203 0 -362 -140q-166 -145 -166 -346q0 -128 111 -217q104 -83 236 -83q164 0 405 96l-43 -105q-250 -93 -447 -93q-169 0 -279 109q-113 108 -113 277zM514 486q0 -71 108 -71q34 0 66 7l72 245q-25 6 -51 6q-75 0 -134 -55q-61 -57 -61 -132z" />
<glyph unicode="A" horiz-adv-x="1452" d="M-63 15l811 1476h221l291 -1476l-187 -30l-87 443h-630l-241 -443zM439 581h520l-136 701z" />
<glyph unicode="B" horiz-adv-x="1327" d="M38 0l265 1491q159 23 331 23q220 0 368 -51q214 -77 214 -253q0 -121 -104 -249q-106 -128 -226 -148q120 -27 199.5 -128.5t79.5 -224.5q0 -253 -264 -381q-202 -100 -484 -100q-191 0 -379 21zM242 145q103 -19 222 -19q203 0 345 75q179 93 179 278q0 135 -187 196 q-128 41 -303 41q-98 0 -157 -13zM372 880q22 -8 75 -8q199 0 364 63q226 85 226 250q0 178 -443 178q-78 0 -136 -4z" />
<glyph unicode="C" horiz-adv-x="1324" d="M96 618q0 67 12 138q58 305 268 510q222 216 533 240q20 2 41 2q153 0 394 -79l-55 -159q-183 91 -337 91q-43 0 -80 -9q-236 -51 -391 -215t-194 -391q-10 -63 -10 -120q0 -187 107 -315q104 -128 299 -164q30 -7 67 -7q164 0 402 108l-6 -152q-256 -115 -433 -115 q-32 0 -61 4q-245 41 -400 216q-156 171 -156 417z" />
<glyph unicode="D" horiz-adv-x="1463" d="M38 0l263 1491q170 23 340 23q309 0 507 -134q230 -155 230 -451q0 -388 -270 -665q-271 -279 -657 -279q-174 0 -413 15zM242 147q99 -19 195 -19q313 0 534 226q220 225 220 540q0 232 -167 356q-148 109 -390 109q-83 0 -183 -17z" />
<glyph unicode="E" d="M38 0l265 1491h882l-14 -149h-718l-79 -448h642l-26 -148h-641l-104 -597h761l-43 -149h-925z" />
<glyph unicode="F" horiz-adv-x="1173" d="M38 0l265 1491h882l-14 -149h-718l-79 -448h642l-26 -148h-641l-132 -746h-179z" />
<glyph unicode="G" horiz-adv-x="1487" d="M94 601q0 349 255 628q256 277 603 277q164 0 392 -73l-55 -159q-190 85 -364 85q-269 0 -467 -239q-186 -224 -186 -498q0 -191 98 -332q112 -156 297 -156q179 0 332 136q151 135 176 311h-383l28 149h556q-32 -308 -228 -519q-209 -226 -512 -226q-246 0 -400 188 q-142 176 -142 428z" />
<glyph unicode="H" horiz-adv-x="1459" d="M38 0l265 1491l181 15l-110 -612h762l106 597h179l-265 -1491l-180 -15l134 761h-761l-132 -746h-179z" />
<glyph unicode="I" horiz-adv-x="520" d="M38 0l263 1491l181 15l-265 -1506h-179z" />
<glyph unicode="J" horiz-adv-x="1229" d="M-21 205l113 121q183 -186 330 -186h21q130 13 198 53q62 35 125 128q39 59 69 177l179 1008l175 -15l-173 -987q-14 -67 -75 -214q-172 -298 -510 -298h-14q-127 2 -266 79q-113 61 -172 134z" />
<glyph unicode="K" horiz-adv-x="1286" d="M38 0l265 1491l181 15l-116 -656l766 656l203 -30l-825 -703l604 -758l-213 -30l-562 708l-124 -693h-179z" />
<glyph unicode="L" d="M38 0l263 1491l181 15l-240 -1357h762l-41 -149h-925z" />
<glyph unicode="M" horiz-adv-x="1778" d="M-21 15l391 1476l205 15l220 -1293l662 1293l200 -15l-113 -1476l-196 -30l115 1208l-596 -1193h-217l-192 1193l-298 -1208z" />
<glyph unicode="N" horiz-adv-x="1497" d="M38 0l265 1491l246 15l512 -1250l219 1235h179l-264 -1491l-226 -15l-530 1271l-224 -1271z" />
<glyph unicode="O" horiz-adv-x="1589" d="M94 605q0 173 79 350q77 175 207 305q244 246 553 246h4q256 -2 407 -177q152 -177 152 -437q0 -174 -77 -351t-207 -307q-249 -249 -554 -249q-253 0 -413 183q-151 177 -151 437zM272 630q0 -206 118 -351q116 -145 298 -145q226 2 411 205q213 234 213 535 q0 203 -105 338q-110 143 -304 145h-4q-249 0 -441 -235q-186 -226 -186 -492z" />
<glyph unicode="P" horiz-adv-x="1280" d="M36 0l265 1491q181 19 353 19q586 0 586 -339q0 -348 -313 -464q-179 -66 -597 -66l-115 -641h-179zM356 795h30q33 0 81 -3q78 -6 110 -6q196 0 326 78q160 97 160 280q0 219 -409 219q-22 0 -198 -13z" />
<glyph unicode="Q" horiz-adv-x="1631" d="M98 618q0 343 262 615q260 273 601 273q255 0 419 -175t164 -430q0 -183 -105 -381q-104 -201 -257 -309l133 -168l-159 -98l-112 151q-172 -111 -363 -111q-253 0 -421 192q-162 183 -162 441zM277 636q0 -197 117 -344q126 -158 319 -158q124 0 242 77l-229 305l164 89 l203 -273q268 229 268 544q0 199 -115 336q-122 145 -317 145q-262 0 -460 -233q-192 -221 -192 -488z" />
<glyph unicode="R" horiz-adv-x="1352" d="M38 0l265 1491q179 19 353 19q586 0 586 -339q0 -175 -106 -304q-107 -132 -278 -184l258 -668l-202 -30l-243 667q-62 -9 -169 -11h-172l-113 -641h-179zM358 795h18q37 0 91 -5q78 -4 110 -4q194 0 326 78q162 95 162 278q0 219 -449 219q-63 0 -160 -6z" />
<glyph unicode="S" horiz-adv-x="1254" d="M-6 108l112 146q16 -18 139 -63q141 -51 230 -55h29q122 0 235 49q157 71 164 201q2 21 2 40q0 121 -57 192q-73 87 -232 87h-37h-30q-173 0 -266 122q-85 110 -85 281v16q3 179 211 288q166 86 355 92h26q106 0 232 -32q128 -31 147 -53l-102 -147q-193 83 -317 83h-17 q-97 -5 -201 -62q-130 -72 -156 -175q-10 -41 -10 -74q0 -192 303 -192h32h17q187 0 278 -124q84 -108 84 -291q0 -41 -5 -81q-34 -350 -634 -371h-17q-113 0 -266 51q-141 47 -164 72z" />
<glyph unicode="T" horiz-adv-x="1316" d="M211 1342l43 149h1073l-12 -149h-463l-236 -1342h-179l236 1342h-462z" />
<glyph unicode="U" horiz-adv-x="1505" d="M134 447q0 75 13 162l156 882l181 15l-158 -892q0 -16 -7 -79q-8 -64 -8 -107q0 -288 319 -296h18q277 0 407 230q55 98 75 236l159 893h178l-157 -895q-58 -293 -247 -458q-179 -153 -420 -153h-31q-228 9 -342 102q-136 111 -136 360z" />
<glyph unicode="V" horiz-adv-x="1452" d="M191 1476l189 30l250 -1297l707 1297l179 -30l-811 -1476h-221z" />
<glyph unicode="W" horiz-adv-x="2002" d="M171 1476l191 30l111 -1293l556 1257h196l112 -1257l567 1293l183 -30l-692 -1476h-192l-112 1256l-556 -1256h-192z" />
<glyph unicode="X" horiz-adv-x="1276" d="M-63 15l606 760l-315 701l209 30l232 -584l439 584l193 -30l-559 -701l342 -760l-208 -30l-260 643l-484 -643z" />
<glyph unicode="Y" d="M149 1476l211 30l256 -716l508 716l199 -30l-646 -844l-110 -632h-179l110 632z" />
<glyph unicode="Z" horiz-adv-x="1345" d="M-10 0l12 149l1091 1193h-853l39 149h1048l-8 -141l-1102 -1201h919l-43 -149h-1103z" />
<glyph unicode="[" horiz-adv-x="585" d="M-19 -551l358 2146h372l-26 -148h-193l-307 -1852h195l-26 -146h-373z" />
<glyph unicode="\" horiz-adv-x="956" d="M160 1532l175 63l464 -1861l-175 -71z" />
<glyph unicode="]" horiz-adv-x="585" d="M-147 -551l25 146h195l307 1852h-195l26 148h372l-357 -2146h-373z" />
<glyph unicode="^" horiz-adv-x="877" d="M94 1307l302 235h147l215 -235l-91 -82l-220 206l-291 -206z" />
<glyph unicode="_" horiz-adv-x="1680" d="M94 -149l26 149h1467l-26 -149h-1467z" />
<glyph unicode="`" horiz-adv-x="573" d="M63 1390l148 94l298 -232l-111 -59z" />
<glyph unicode="a" horiz-adv-x="1128" d="M81 380q0 272 155 474q169 217 426 219h7q185 0 402 -121l-134 -739v-4q0 -62 53 -81q30 -13 111 -13l-97 -130h-10q-155 0 -208 90q-215 -90 -324 -90q-183 0 -281 104q-100 104 -100 291zM252 394q0 -260 230 -260q114 0 272 57l124 676q-120 51 -275 51 q-130 0 -247 -194q-104 -177 -104 -330z" />
<glyph unicode="b" d="M102 110l250 1422l180 14l-97 -556q181 83 298 83q185 0 289 -108q102 -109 102 -294q0 -283 -144 -475q-160 -211 -435 -211q-217 0 -443 125zM296 205q168 -71 298 -71q177 0 278 173q80 144 80 336q0 117 -56 188q-63 78 -178 78q-141 0 -311 -70z" />
<glyph unicode="c" horiz-adv-x="1081" d="M98 437q0 254 189 445q190 191 441 191q111 0 329 -87l-94 -140q-111 79 -292 79q-159 0 -285 -163q-120 -148 -120 -313q0 -126 73 -217q78 -98 204 -98q142 0 311 71l42 -132q-223 -90 -374 -90q-179 0 -300 137q-124 136 -124 317z" />
<glyph unicode="d" horiz-adv-x="1201" d="M79 366q0 286 149 486q164 221 439 221q117 0 270 -83l98 556l177 -14l-251 -1422q-268 -127 -488 -127q-181 0 -288 102q-106 102 -106 281zM248 380q0 -110 61 -177q59 -69 168 -69q139 0 320 57l112 648q-145 70 -285 70q-179 0 -287 -183q-89 -153 -89 -346z" />
<glyph unicode="e" horiz-adv-x="1097" d="M100 426q0 239 166 438q177 209 411 209q171 0 275 -132q96 -121 96 -291v-9q-2 -157 -369 -188l-407 -18v-16v-14q0 -135 37 -192q51 -79 205 -79q225 0 306 69l42 -130q-47 -41 -177 -67q-106 -21 -193 -21q-181 0 -289 133q-103 122 -103 308zM287 581l367 15 q228 20 228 56v13q0 99 -59 178q-67 82 -177 82q-126 0 -233 -114q-94 -100 -126 -230z" />
<glyph unicode="f" horiz-adv-x="862" d="M-128 -343l41 -2h21q117 0 166 109q20 40 56 236l161 916h-189l23 134h190q15 213 126 330q114 128 323 128q126 0 273 -63l-116 -133q-104 49 -205 49q-118 0 -186 -103q-58 -85 -64 -208h402l-25 -134h-400l-162 -916q-49 -268 -88 -332q-70 -119 -294 -156z" />
<glyph unicode="g" horiz-adv-x="1182" d="M81 -405l92 135q140 -69 270 -69q181 0 256 101q57 76 93 289q-170 -66 -292 -66q-185 0 -293 107q-109 104 -109 288q0 276 150 476q163 217 431 217q175 0 443 -148l-163 -925q-39 -219 -156 -347q-132 -145 -341 -145q-187 0 -381 87zM268 394q0 -117 67 -187 q65 -73 185 -73q136 0 293 57l116 648q-169 70 -307 70q-155 0 -262 -187q-92 -159 -92 -328z" />
<glyph unicode="h" horiz-adv-x="1211" d="M71 0l268 1532l183 14l-103 -573q211 100 337 100q118 0 220 -71q115 -80 115 -193q0 -185 -87 -596q-2 -10 -2 -22q0 -76 169 -76l-98 -130q-102 0 -170 36q-80 45 -80 128q0 19 4 38l61 284q32 163 32 273q0 181 -219 181q-115 0 -307 -98l-144 -827h-179z" />
<glyph unicode="i" horiz-adv-x="595" d="M136 187l151 857l182 15l-150 -846v-4q0 -62 53 -81q30 -13 112 -13l-98 -130h-4q-246 0 -246 202zM345 1470q0 10 2 21q9 45 47 78q34 31 79 31h4q45 0 70 -33q22 -25 22 -59q0 -8 -2 -17q-6 -44 -44.5 -76.5t-85.5 -32.5h-4q-43 0 -67 32q-21 23 -21 56z" />
<glyph unicode="j" horiz-adv-x="601" d="M-431 -439l65 124q31 -15 140 -41q37 -6 68 -6q75 0 122 32q57 38 91 96q16 27 53 126q24 59 41 171l172 981l183 15l-176 -996q-21 -104 -51 -187q-74 -204 -181 -276q-132 -90 -303 -90h-8q-79 2 -216 51zM380 1470q0 10 2 21q8 45 46 78q34 31 78 31h6q44 0 69 -33 q22 -25 22 -59q0 -8 -2 -17q-7 -44 -45 -76.5t-85 -32.5h-4q-43 0 -67 32q-20 23 -20 56z" />
<glyph unicode="k" horiz-adv-x="1041" d="M59 0l271 1532l182 14l-154 -869l516 392l161 -49l-588 -439l486 -569l-177 -44l-430 526l-88 -494h-179z" />
<glyph unicode="l" horiz-adv-x="544" d="M118 187l219 1345l181 14l-217 -1333v-4q0 -62 53 -83q30 -11 110 -11l-98 -130h-4q-244 0 -244 202z" />
<glyph unicode="m" horiz-adv-x="1895" d="M77 0l183 1044l181 15l-17 -104q196 118 306 118q184 0 290 -151q224 151 407 151q119 0 221 -69q116 -79 116 -195q0 -114 -32 -293q-28 -152 -53 -303q-3 -10 -3 -20q0 -48 51 -65q35 -13 120 -13l-99 -130q-114 0 -183 45q-69 47 -69 130q0 13 2 27q8 71 57 292 q38 179 38 279q0 79 -57.5 124t-147.5 45q-112 0 -315 -132q-4 -165 -47 -399l-76 -396h-175l77 374q49 233 49 374q0 179 -210 179q-112 0 -293 -110l-142 -817h-179z" />
<glyph unicode="n" horiz-adv-x="1186" d="M75 0l185 1044l181 15l-15 -86q210 100 334 100q118 0 220 -71q115 -80 115 -193q0 -185 -87 -596q-2 -10 -2 -22q0 -76 169 -76l-98 -130q-101 0 -170 36q-80 45 -80 128q0 19 4 38l61 284q33 163 33 273q0 81 -63 132q-63 49 -157 49q-115 0 -307 -98l-144 -827h-179z " />
<glyph unicode="o" horiz-adv-x="1199" d="M98 431q0 246 181 444t426 198q181 0 291 -132q105 -124 105 -307q0 -244 -176 -443q-181 -206 -423 -206q-181 0 -295 135q-109 128 -109 311zM268 453q0 -123 69 -215q74 -102 195 -102q156 0 281 162q120 151 120 311q0 121 -69 214q-74 102 -193 102 q-157 0 -283 -161q-120 -148 -120 -311z" />
<glyph unicode="p" horiz-adv-x="1245" d="M61 -488l222 1254q-68 -36 -151 -97l-14 85q87 71 187 130l42 252l183 14l-30 -166q185 89 307 89q179 0 287.5 -91.5t108.5 -268.5q0 -280 -157 -494q-172 -234 -448 -234q-114 0 -261 66l-92 -524zM362 193q136 -57 272 -57q186 0 299 185q98 161 98 360q0 97 -64 164 t-160 67q-140 0 -330 -69z" />
<glyph unicode="q" horiz-adv-x="1184" d="M140 409q0 279 141 465q156 201 426 201q179 0 449 -150l-204 -1185v-4q0 -62 54 -81q29 -13 110 -13l-100 -130h-4q-243 0 -243 203q0 63 21 167l35 169q-171 -68 -288 -68q-188 0 -295 121q-102 115 -102 305zM311 422q0 -284 245 -284q137 0 294 58l113 643 q-171 70 -309 70q-177 0 -268 -163q-75 -134 -75 -324z" />
<glyph unicode="r" horiz-adv-x="845" d="M77 0l183 1044l181 15l-10 -69q36 24 71 41q86 40 158 42h5q106 0 249 -71l-87 -135q-35 17 -67 27q-75 31 -126 33h-16q-98 0 -213 -73l-149 -854h-179z" />
<glyph unicode="s" horiz-adv-x="1011" d="M26 71l94 132q108 -67 232 -67q148 0 240 51q119 65 119 197q0 89 -155 89q-28 0 -74 -2q-47 -4 -60 -4q-269 0 -269 232q0 159 156 272q140 102 309 102q65 0 162 -23q114 -26 145 -62l-88 -130q-142 67 -251 67q-96 0 -177 -61q-88 -65 -88 -155q0 -93 185 -93 q22 0 57 2h44q273 0 273 -205q0 -206 -167 -324q-148 -104 -361 -104q-175 0 -326 86z" />
<glyph unicode="t" horiz-adv-x="790" d="M142 916l22 134h200l41 253l156 30l-45 -283h274l-21 -134h-275l-66 -353q-40 -214 -40 -339v-13q2 -71 72 -71q75 0 143 45l47 -134q-122 -66 -188 -66q-86 0 -153 39q-79 47 -81 125v15q0 149 40 371l75 381h-201z" />
<glyph unicode="u" horiz-adv-x="1171" d="M124 248q0 159 47 400l81 396l179 15l-82 -374q-48 -229 -48 -370q0 -93 57 -144q55 -53 154 -53q112 0 287 89l148 843h179l-146 -837v-4q0 -62 51 -81q30 -13 111 -13l-98 -130h-9q-157 0 -210 94q-256 -94 -352 -94q-126 0 -231 66q-118 77 -118 197z" />
<glyph unicode="v" horiz-adv-x="1141" d="M156 1029l193 30l163 -868l468 868l179 -30l-569 -1029h-228z" />
<glyph unicode="w" horiz-adv-x="1550" d="M151 1029l190 30l59 -899l378 890h181l61 -890l377 899l177 -30l-492 -1029h-186l-69 825l-363 -825h-183z" />
<glyph unicode="x" horiz-adv-x="1034" d="M-26 15l443 520l-246 494l187 30l185 -397l319 397l179 -30l-419 -494l260 -520l-189 -30l-197 420l-340 -420z" />
<glyph unicode="y" horiz-adv-x="1164" d="M63 -405l95 135q140 -69 270 -69q192 0 269 120q40 63 78 278q-192 -74 -302 -74q-126 0 -231 66q-118 77 -118 197q0 159 47 400l81 396l181 15l-81 -371q-47 -230 -47 -371q0 -199 207 -199q112 0 287 89l148 843h179l-183 -1050q-38 -222 -155 -347 q-132 -145 -343 -145q-185 0 -382 87z" />
<glyph unicode="z" horiz-adv-x="1048" d="M41 149l732 752h-570l25 149h745l7 -141l-732 -760h628l-41 -149h-790z" />
<glyph unicode="{" horiz-adv-x="881" d="M153 424l34 190q53 20 96 44q103 58 128 122q32 78 58 277q23 195 57 283q55 144 185 204q104 49 318 53l-64 -160q-34 8 -69 8q-79 0 -118 -37q-95 -87 -128 -241l-45 -271q-32 -159 -119 -260q-45 -48 -130 -122q30 -32 85 -111.5t55 -183.5q0 -74 -37 -221t-37 -213 q0 -88 45 -149q25 -36 104 -36q36 0 70 6l9 -159h-16q-193 0 -285 53q-119 69 -119 225q0 84 49 273q40 168 40 247v15q-4 94 -166 164z" />
<glyph unicode="|" horiz-adv-x="489" d="M30 0l281 1595h149l-281 -1595h-149z" />
<glyph unicode="}" horiz-adv-x="881" d="M-147 -553l64 159q34 -6 68 -6q78 0 119 36q94 87 126 240q22 136 40 273q35 158 126 253q43 43 126 112q-28 35 -83 122q-45 80 -45 181q0 77 34 223.5t34 209.5q0 92 -47 158q-25 37 -104 37q-36 0 -71 -8l-8 160h16q193 0 284 -53q122 -68 122 -227q0 -84 -49 -276 q-42 -174 -42 -253v-8q4 -95 165 -166l-33 -190q-54 -22 -97 -44q-102 -57 -127 -120q-30 -79 -56 -272q-25 -197 -59 -284q-58 -143 -185 -204q-105 -51 -318 -53z" />
<glyph unicode="~" horiz-adv-x="908" d="M41 518l32 170q23 42 95 78.5t135 36.5q73 0 170 -68q94 -68 163 -68q77 0 238 136l-28 -157q-151 -128 -234 -128q-75 0 -169 68q-96 66 -166 66h-5q-61 0 -127 -38q-70 -41 -104 -96z" />
<glyph unicode="&#xa1;" horiz-adv-x="551" d="M53 -458l118 669l93 443l151 15l-66 -458l-115 -654zM262 943q0 59 47 98q36 30 79 30q10 0 23 -2q105 -19 105 -126q0 -57 -45 -95q-38 -33 -83 -33q-12 0 -22 2q-104 18 -104 126z" />
<glyph unicode="&#xa2;" horiz-adv-x="1079" d="M96 498q0 39 6 79q32 181 179 313q141 128 333 162l22 141h150l-24 -136q118 -16 246 -75l-45 -126q-34 20 -69 34q-81 35 -152 43l-124 -699q128 8 291 105l-4 -124q-49 -28 -98 -49q-119 -48 -213 -60l-17 -106h-149l19 110q-157 26 -254 131.5t-97 256.5zM245 530 q0 -97 63.5 -172t162.5 -106l119 670q-139 -42 -238 -153q-107 -115 -107 -239z" />
<glyph unicode="&#xa3;" horiz-adv-x="1048" d="M2 0l26 149h17q59 0 89 15q64 27 94 88l42 240h-181l26 149h181l30 174q17 156 124.5 258t262.5 114h13q107 0 278 -88l-73 -128q-114 70 -187 70q-11 0 -20 -2q-177 -23 -220 -228l-29 -170h373l-25 -149h-374l-42 -236q-7 -18 -27 -55q-14 -22 -48 -52h530l-25 -149 h-835z" />
<glyph unicode="&#xa5;" horiz-adv-x="1199" d="M179 156l26 149h242l20 110h-243l28 150h244l-289 594l193 23l218 -477l390 477l185 -23l-498 -594h244l-27 -150h-243l-19 -110h242l-25 -149h-243l-28 -156h-202l28 156h-243z" />
<glyph unicode="&#xa7;" horiz-adv-x="877" d="M15 77l95 134q107 -101 199 -101q247 0 247 184q0 60 -105 60q-23 0 -59 -2q-38 -5 -49 -5q-219 0 -219 198q0 130 121 219q-58 49 -58 143q0 132 122 229q113 89 252 89q108 0 254 -75l-78 -121q-101 62 -186 62q-78 0 -140 -36q-72 -43 -72 -116q0 -61 83 -79 q23 -4 127 -4q233 0 233 -161q0 -173 -117 -239q57 -34 57 -111q0 -177 -136 -282q-124 -95 -305 -95q-121 0 -266 109zM272 569q0 -81 143 -81q207 0 207 172q0 64 -120 64q-89 0 -150 -31q-80 -41 -80 -124z" />
<glyph unicode="&#xa8;" horiz-adv-x="815" d="M106 1293q0 42 32 75q30 29 73 29t74 -29q30 -33 30 -75q0 -43 -30 -72q-31 -32 -74 -32t-73 32q-32 29 -32 72zM500 1293q0 42 32 75q31 29 73 29q43 0 74 -29q30 -33 30 -75q0 -43 -30 -72q-31 -32 -74 -32q-42 0 -73 32q-32 29 -32 72z" />
<glyph unicode="&#xa9;" horiz-adv-x="1160" d="M100 650q0 219 172.5 388t392.5 169q168 0 282 -114q114 -117 114 -286q0 -215 -173 -381q-175 -168 -390 -168q-172 0 -285 110q-113 111 -113 282zM219 671q0 -128 88 -211q85 -84 213 -84q163 0 293 128q128 126 128 291q0 127 -85 210.5t-213 83.5q-164 0 -294 -126 q-130 -128 -130 -292zM339 688q0 113 87 204q86 90 198 90q67 0 145 -37l-30 -102q-62 41 -119 41q-64 0 -106 -57q-45 -58 -45 -124q0 -47 29 -81q28 -36 75 -36q61 0 147 53l-9 -104q-104 -51 -172 -51q-88 0 -143 59q-57 58 -57 145z" />
<glyph unicode="&#xaa;" horiz-adv-x="679" d="M87 1089v8q7 134 139 202q55 30 132 30q42 0 87 -10q2 18 2 31t-2 22q-10 25 -57 25q-73 0 -183 -42l-39 96q147 55 220 55h8q120 -6 164 -57q34 -39 34 -97q0 -21 -17 -121.5t-55 -295.5h-134l2 12q-71 -22 -116 -22q-10 0 -18 2q-167 25 -167 162zM219 1108 q0 -71 98 -71q39 0 88 11l21 157q-36 9 -72 9q-118 0 -132 -90q-3 -8 -3 -16z" />
<glyph unicode="&#xab;" horiz-adv-x="926" d="M96 460l26 143l362 296l6 -124l-301 -247l213 -258l-48 -121zM469 460l25 143l362 296l6 -124l-299 -247l212 -258l-49 -121z" />
<glyph unicode="&#xac;" horiz-adv-x="1192" d="M158 484l25 148h894l-67 -396h-179l43 248h-716z" />
<glyph unicode="&#xad;" horiz-adv-x="813" d="M158 484l25 148h473l-26 -148h-472z" />
<glyph unicode="&#xae;" horiz-adv-x="1160" d="M100 650q0 219 172.5 388t392.5 169q170 0 282 -110q114 -111 114 -282q0 -219 -171 -387q-172 -170 -392 -170q-172 0 -285 110q-113 111 -113 282zM219 671q0 -128 88 -211q85 -84 213 -84q161 0 291 128t130 291q0 127 -85 210.5t-213 83.5q-164 0 -294 -126 q-130 -128 -130 -292zM384 492l85 479q70 9 125 9q188 0 188 -122q0 -106 -105 -157l75 -199l-116 -18l-65 193l-55 -2l-32 -183h-100zM532 773q29 -2 41 -2q106 0 106 70q0 41 -102 41h-8h-18z" />
<glyph unicode="&#xaf;" horiz-adv-x="707" d="M136 1169l26 150h409l-26 -150h-409z" />
<glyph unicode="&#xb0;" horiz-adv-x="715" d="M102 1195q0 117 91 209q92 89 209 89q88 0 149 -58q63 -57 63 -144q0 -120 -90 -209q-91 -92 -211 -92q-89 0 -149 58q-62 58 -62 147zM238 1216q0 -45 28 -74q26 -32 69 -32q57 0 99.5 48.5t42.5 109.5q0 44 -26 76q-25 30 -69 30q-59 0 -101 -49q-43 -51 -43 -109z" />
<glyph unicode="&#xb1;" horiz-adv-x="969" d="M79 -15l25 149h671l-25 -149h-671zM153 415l28 150h245l38 223h179l-38 -223h247l-27 -150l-246 2l-40 -226h-179l38 224h-245z" />
<glyph unicode="&#xb2;" horiz-adv-x="1133" d="M41 0l28 149l285 200q213 153 327 273q156 160 156 270t-46.5 149t-170.5 39q-62 0 -169.5 -30t-169.5 -60l-27 144q191 87 387 87q188 0 268 -56q103 -70 103 -247q0 -351 -689 -769h580l-27 -149h-835z" />
<glyph unicode="&#xb3;" horiz-adv-x="1079" d="M55 75l73 144q149 -95 294 -95q121 0 200 49q96 59 96 172q0 124 -84 173q-61 35 -185 35q-32 0 -93 -2q-62 -4 -88 -4l28 150l177 -4h9q121 0 197 46q101 60 101 179q0 157 -177 157q-115 0 -320 -85l-29 144q238 87 385 87q139 0 230 -87q90 -90 90 -229 q0 -183 -179 -283q106 -49 106 -224q0 -193 -134 -306q-126 -109 -326 -109q-166 0 -371 92z" />
<glyph unicode="&#xb4;" horiz-adv-x="593" d="M75 1252l299 232l146 -94l-333 -197z" />
<glyph unicode="&#xb5;" horiz-adv-x="1271" d="M30 -298l236 1342l181 15l-153 -868q153 -73 257 -73h18q226 12 272 276l114 650h179q-48 -252 -128 -725q-2 -16 -2 -34q0 -72 48 -119q47 -48 130 -48l-23 -130h-13q-170 0 -272 116q-148 -119 -316 -119h-13q-106 3 -275 74l-61 -357h-179z" />
<glyph unicode="&#xb6;" horiz-adv-x="1178" d="M151 874v12q0 347 613 347q156 0 348 -19l-211 -1193l-151 -15l193 1100l-153 10l-196 -1110l-147 15l90 501q-375 8 -386 352z" />
<glyph unicode="&#xb8;" horiz-adv-x="630" d="M136 -245q51 -5 96 -5q107 0 107 28q0 7 -7 15q-25 36 -117 43l57 166h114l-34 -89q125 -31 125 -102q0 -30 -26 -65q-65 -93 -221 -93q-47 0 -88 8z" />
<glyph unicode="&#xb9;" horiz-adv-x="664" d="M187 1055l235 138h176l-208 -1193h-179l179 1020l-156 -98z" />
<glyph unicode="&#xba;" horiz-adv-x="754" d="M102 1150q0 128 101 236q98 107 225 107h5q99 -2 159 -70t60 -169q0 -126 -99.5 -234t-229.5 -108q-99 0 -159 70q-62 68 -62 168zM230 1165q0 -59 32 -98q30 -38 81 -38h4q68 2 122 70q51 68 51 145q0 57 -30 95.5t-81 40.5h-4q-66 0 -120 -65q-55 -71 -55 -150z" />
<glyph unicode="&#xbb;" horiz-adv-x="926" d="M63 275l301 245l-213 258l50 121l257 -311l-25 -143l-362 -296zM437 275l300 245l-213 258l49 121l258 -311l-26 -143l-362 -296z" />
<glyph unicode="&#xbc;" horiz-adv-x="2081" d="M994 305l26 148l757 740h178l-130 -740h167l-26 -148h-167l-53 -305l-174 2l53 303h-631zM1220 453h431l87 499zM188 -266l1120 1861l154 -63l-1125 -1869zM187 1055l235 138h176l-208 -1193h-179l179 1020l-156 -98z" />
<glyph unicode="&#xbd;" horiz-adv-x="2115" d="M1023 0l28 149l285 200q213 153 327 273q156 160 156 270t-46.5 149t-170.5 39q-62 0 -169.5 -30t-169.5 -60l-27 144q191 87 387 87q188 0 268 -56q103 -70 103 -247q0 -351 -689 -769h580l-27 -149h-835zM188 -266l1120 1861l154 -63l-1125 -1869zM187 1055l235 138 h176l-208 -1193h-179l179 1020l-156 -98z" />
<glyph unicode="&#xbe;" horiz-adv-x="2496" d="M1409 305l26 148l757 740h178l-130 -740h167l-26 -148h-167l-53 -305l-174 2l53 303h-631zM1635 453h431l87 499zM603 -266l1120 1861l154 -63l-1125 -1869zM55 75l73 144q149 -95 294 -95q121 0 200 49q96 59 96 172q0 124 -84 173q-61 35 -185 35q-32 0 -93 -2 q-62 -4 -88 -4l28 150l177 -4h9q121 0 197 46q101 60 101 179q0 157 -177 157q-115 0 -320 -85l-29 144q238 87 385 87q139 0 230 -87q90 -90 90 -229q0 -183 -179 -283q106 -49 106 -224q0 -193 -134 -306q-126 -109 -326 -109q-166 0 -371 92z" />
<glyph unicode="&#xbf;" horiz-adv-x="1058" d="M34 -128q0 26 4 51q25 148 130 254q62 59 206 149q130 79 171 132q16 21 24 56l12 63l13 73l184 21l-20 -100q-2 -30 -23 -96q-30 -105 -149 -194l-218 -141q-116 -87 -144 -191q-7 -24 -7 -47q0 -87 77 -140q76 -56 175 -56q165 0 354 111l18 -138q-262 -126 -415 -126 q-17 0 -32 2q-154 12 -256 102q-104 87 -104 215zM605 945q0 59 47 99q36 29 78 29q14 0 26 -2q102 -19 102 -126q0 -57 -45 -95q-38 -33 -80 -33q-11 0 -22 3q-106 19 -106 125z" />
<glyph unicode="&#xc0;" horiz-adv-x="1452" d="M-63 15l811 1476h221l291 -1476l-187 -30l-87 443h-630l-241 -443zM439 581h520l-136 701zM614 1790l148 94l298 -232l-111 -59z" />
<glyph unicode="&#xc1;" horiz-adv-x="1452" d="M-63 15l811 1476h221l291 -1476l-187 -30l-87 443h-630l-241 -443zM439 581h520l-136 701zM628 1636l299 232l146 -94l-333 -197z" />
<glyph unicode="&#xc2;" horiz-adv-x="1452" d="M-63 15l811 1476h221l291 -1476l-187 -30l-87 443h-630l-241 -443zM439 581h520l-136 701zM567 1693l309 170l249 -170l-93 -102l-184 114l-222 -114z" />
<glyph unicode="&#xc3;" horiz-adv-x="1452" d="M-63 15l811 1476h221l291 -1476l-187 -30l-87 443h-630l-241 -443zM439 581h520l-136 701zM433 1573l32 171q23 43 95 78.5t135 35.5q73 0 170 -67q94 -69 163 -69q77 0 238 136l-28 -157q-151 -128 -234 -128q-75 0 -169 69q-96 66 -166 66h-5q-61 0 -127 -39 q-70 -40 -104 -96z" />
<glyph unicode="&#xc4;" horiz-adv-x="1452" d="M-63 15l811 1476h221l291 -1476l-187 -30l-87 443h-630l-241 -443zM439 581h520l-136 701zM549 1728q0 42 32 75q30 29 73 29t74 -29q30 -33 30 -75q0 -43 -30 -72q-31 -32 -74 -32t-73 32q-32 29 -32 72zM943 1728q0 42 32 75q31 29 73 29q43 0 74 -29q30 -33 30 -75 q0 -43 -30 -72q-31 -32 -74 -32q-42 0 -73 32q-32 29 -32 72z" />
<glyph unicode="&#xc5;" horiz-adv-x="1452" d="M-63 15l811 1476h221l291 -1476l-187 -30l-87 443h-630l-241 -443zM439 581h520l-136 701zM638 1673q0 118 93 207q94 87 210 87q90 0 154 -59q62 -60 62 -150q0 -116 -94 -204q-94 -89 -211 -89q-89 0 -151 59q-63 60 -63 149zM774 1691q0 -45 27 -75q28 -32 73 -32 q59 0 104 48q42 50 42 110q0 44 -27 77q-28 29 -72 29q-60 0 -102 -47q-45 -49 -45 -110z" />
<glyph unicode="&#xc6;" horiz-adv-x="2185" d="M-63 15l1275 1476h979l-8 -149h-760l-79 -448h641l-26 -148h-640l-107 -597h762l-40 -149h-932l75 433h-583l-392 -448zM626 581h477l126 714z" />
<glyph unicode="&#xc7;" horiz-adv-x="1324" d="M96 618q0 67 12 138q58 305 268 510q222 216 533 240q20 2 41 2q153 0 394 -79l-55 -159q-183 91 -337 91q-43 0 -80 -9q-236 -51 -391 -215t-194 -391q-10 -63 -10 -120q0 -187 107 -315q104 -128 299 -164q30 -7 67 -7q164 0 402 108l-6 -152q-256 -115 -433 -115 q-32 0 -61 4q-245 41 -400 216q-156 171 -156 417zM541 -245q51 -5 96 -5q107 0 107 28q0 7 -7 15q-25 36 -117 43l57 166h114l-34 -89q125 -31 125 -102q0 -30 -26 -65q-65 -93 -221 -93q-47 0 -88 8z" />
<glyph unicode="&#xc8;" d="M38 0l265 1491h882l-14 -149h-718l-79 -448h642l-26 -148h-641l-104 -597h761l-43 -149h-925zM572 1790l148 94l298 -232l-111 -59z" />
<glyph unicode="&#xc9;" d="M38 0l265 1491h882l-14 -149h-718l-79 -448h642l-26 -148h-641l-104 -597h761l-43 -149h-925zM565 1636l299 232l146 -94l-333 -197z" />
<glyph unicode="&#xca;" d="M38 0l265 1491h882l-14 -149h-718l-79 -448h642l-26 -148h-641l-104 -597h761l-43 -149h-925zM503 1693l309 170l249 -170l-93 -102l-184 114l-222 -114z" />
<glyph unicode="&#xcb;" d="M38 0l265 1491h882l-14 -149h-718l-79 -448h642l-26 -148h-641l-104 -597h761l-43 -149h-925zM486 1728q0 42 32 75q30 29 73 29t74 -29q30 -33 30 -75q0 -43 -30 -72q-31 -32 -74 -32t-73 32q-32 29 -32 72zM880 1728q0 42 32 75q31 29 73 29q43 0 74 -29q30 -33 30 -75 q0 -43 -30 -72q-31 -32 -74 -32q-42 0 -73 32q-32 29 -32 72z" />
<glyph unicode="&#xcc;" horiz-adv-x="520" d="M46 0l263 1491l181 15l-265 -1506h-179zM191 1790l148 94l298 -232l-111 -59z" />
<glyph unicode="&#xcd;" horiz-adv-x="520" d="M26 0l263 1491l181 15l-265 -1506h-179zM193 1636l299 232l146 -94l-333 -197z" />
<glyph unicode="&#xce;" horiz-adv-x="520" d="M87 0l263 1491l181 15l-265 -1506h-179zM185 1693l309 170l249 -170l-93 -102l-184 114l-222 -114z" />
<glyph unicode="&#xcf;" horiz-adv-x="520" d="M89 0l263 1491l181 15l-265 -1506h-179zM169 1728q0 42 32 75q30 29 73 29t74 -29q30 -33 30 -75q0 -43 -30 -72q-31 -32 -74 -32t-73 32q-32 29 -32 72zM563 1728q0 42 32 75q31 29 73 29q43 0 74 -29q30 -33 30 -75q0 -43 -30 -72q-31 -32 -74 -32q-42 0 -73 32 q-32 29 -32 72z" />
<glyph unicode="&#xd1;" horiz-adv-x="1497" d="M38 0l265 1491l246 15l512 -1250l219 1235h179l-264 -1491l-226 -15l-530 1271l-224 -1271zM497 1573l32 171q23 43 95 78.5t135 35.5q73 0 170 -67q94 -69 163 -69q77 0 238 136l-28 -157q-151 -128 -234 -128q-75 0 -169 69q-96 66 -166 66h-5q-61 0 -127 -39 q-70 -40 -104 -96z" />
<glyph unicode="&#xd2;" horiz-adv-x="1589" d="M94 605q0 173 79 350q77 175 207 305q244 246 553 246h4q256 -2 407 -177q152 -177 152 -437q0 -174 -77 -351t-207 -307q-249 -249 -554 -249q-253 0 -413 183q-151 177 -151 437zM272 630q0 -206 118 -351q116 -145 298 -145q226 2 411 205q213 234 213 535 q0 203 -105 338q-110 143 -304 145h-4q-249 0 -441 -235q-186 -226 -186 -492zM721 1790l148 94l298 -232l-111 -59z" />
<glyph unicode="&#xd3;" horiz-adv-x="1589" d="M94 605q0 173 79 350q77 175 207 305q244 246 553 246h4q256 -2 407 -177q152 -177 152 -437q0 -174 -77 -351t-207 -307q-249 -249 -554 -249q-253 0 -413 183q-151 177 -151 437zM272 630q0 -206 118 -351q116 -145 298 -145q226 2 411 205q213 234 213 535 q0 203 -105 338q-110 143 -304 145h-4q-249 0 -441 -235q-186 -226 -186 -492zM725 1636l299 232l146 -94l-333 -197z" />
<glyph unicode="&#xd4;" horiz-adv-x="1589" d="M94 605q0 173 79 350q77 175 207 305q244 246 553 246h4q256 -2 407 -177q152 -177 152 -437q0 -174 -77 -351t-207 -307q-249 -249 -554 -249q-253 0 -413 183q-151 177 -151 437zM272 630q0 -206 118 -351q116 -145 298 -145q226 2 411 205q213 234 213 535 q0 203 -105 338q-110 143 -304 145h-4q-249 0 -441 -235q-186 -226 -186 -492zM652 1693l309 170l249 -170l-93 -102l-184 114l-222 -114z" />
<glyph unicode="&#xd5;" horiz-adv-x="1503" d="M94 605q0 173 79 350q77 175 207 305q244 246 553 246h4q256 -2 407 -177q152 -177 152 -437q0 -174 -77 -351t-207 -307q-249 -249 -554 -249q-253 0 -413 183q-151 177 -151 437zM272 630q0 -206 118 -351q116 -145 298 -145q226 2 411 205q213 234 213 535 q0 203 -105 338q-110 143 -304 145h-4q-249 0 -441 -235q-186 -226 -186 -492zM518 1573l32 171q23 43 95 78.5t135 35.5q73 0 170 -67q94 -69 163 -69q77 0 238 136l-28 -157q-151 -128 -234 -128q-75 0 -169 69q-96 66 -166 66h-5q-61 0 -127 -39q-70 -40 -104 -96z" />
<glyph unicode="&#xd6;" horiz-adv-x="1589" d="M94 605q0 173 79 350q77 175 207 305q244 246 553 246h4q256 -2 407 -177q152 -177 152 -437q0 -174 -77 -351t-207 -307q-249 -249 -554 -249q-253 0 -413 183q-151 177 -151 437zM272 630q0 -206 118 -351q116 -145 298 -145q226 2 411 205q213 234 213 535 q0 203 -105 338q-110 143 -304 145h-4q-249 0 -441 -235q-186 -226 -186 -492zM624 1728q0 42 32 75q30 29 73 29t74 -29q30 -33 30 -75q0 -43 -30 -72q-31 -32 -74 -32t-73 32q-32 29 -32 72zM1018 1728q0 42 32 75q31 29 73 29q43 0 74 -29q30 -33 30 -75q0 -43 -30 -72 q-31 -32 -74 -32q-42 0 -73 32q-32 29 -32 72z" />
<glyph unicode="&#xd8;" horiz-adv-x="1503" d="M49 15l158 183q-115 164 -115 394q0 115 32 231q81 287 285 478q217 205 481 205h4q177 0 320 -124l130 154l154 -60l-177 -210q91 -154 91 -363q0 -334 -232 -620q-245 -298 -564 -298q-175 0 -305 100l-106 -130zM272 620q0 -151 60 -275l776 909q-96 101 -246 103h-4 q-242 0 -419 -241q-167 -226 -167 -496zM424 215q94 -81 222 -81q246 2 421 250q162 232 162 506q0 124 -38 224z" />
<glyph unicode="&#xd9;" horiz-adv-x="1505" d="M134 447q0 75 13 162l156 882l181 15l-158 -892q0 -16 -7 -79q-8 -64 -8 -107q0 -288 319 -296h18q277 0 407 230q55 98 75 236l159 893h178l-157 -895q-58 -293 -247 -458q-179 -153 -420 -153h-31q-228 9 -342 102q-136 111 -136 360zM699 1790l148 94l298 -232 l-111 -59z" />
<glyph unicode="&#xda;" horiz-adv-x="1505" d="M134 447q0 75 13 162l156 882l181 15l-158 -892q0 -16 -7 -79q-8 -64 -8 -107q0 -288 319 -296h18q277 0 407 230q55 98 75 236l159 893h178l-157 -895q-58 -293 -247 -458q-179 -153 -420 -153h-31q-228 9 -342 102q-136 111 -136 360zM703 1636l299 232l146 -94 l-333 -197z" />
<glyph unicode="&#xdb;" horiz-adv-x="1505" d="M134 447q0 75 13 162l156 882l181 15l-158 -892q0 -16 -7 -79q-8 -64 -8 -107q0 -288 319 -296h18q277 0 407 230q55 98 75 236l159 893h178l-157 -895q-58 -293 -247 -458q-179 -153 -420 -153h-31q-228 9 -342 102q-136 111 -136 360zM652 1693l309 170l249 -170 l-93 -102l-184 114l-222 -114z" />
<glyph unicode="&#xdc;" horiz-adv-x="1505" d="M134 447q0 75 13 162l156 882l181 15l-158 -892q0 -16 -7 -79q-8 -64 -8 -107q0 -288 319 -296h18q277 0 407 230q55 98 75 236l159 893h178l-157 -895q-58 -293 -247 -458q-179 -153 -420 -153h-31q-228 9 -342 102q-136 111 -136 360zM624 1728q0 42 32 75q30 29 73 29 t74 -29q30 -33 30 -75q0 -43 -30 -72q-31 -32 -74 -32t-73 32q-32 29 -32 72zM1018 1728q0 42 32 75q31 29 73 29q43 0 74 -29q30 -33 30 -75q0 -43 -30 -72q-31 -32 -74 -32q-42 0 -73 32q-32 29 -32 72z" />
<glyph unicode="&#xdd;" d="M652 1692l299 232l146 -94l-333 -197zM149 1476l211 30l256 -716l508 716l199 -30l-646 -844l-110 -632h-179l110 632z" />
<glyph unicode="&#xdf;" horiz-adv-x="1252" d="M41 6l262 1485q203 15 362 15q61 0 108 -2q145 -8 249 -90q114 -85 126 -221v-22q0 -127 -134 -238q-122 -98 -245 -120q115 -29 211 -146q104 -128 104 -273q-2 -388 -547 -409h-17q-75 0 -199 15l47 145q83 -19 173 -19q339 0 368 298q3 11 3 21q0 183 -384 273l35 191 q106 20 185 52q191 72 213 191q2 19 2 35q0 168 -311 168q-87 0 -199 -13l-236 -1342z" />
<glyph unicode="&#xe0;" horiz-adv-x="1128" d="M81 380q0 272 155 474q169 217 426 219h7q185 0 402 -121l-134 -739v-4q0 -62 53 -81q30 -13 111 -13l-97 -130h-10q-155 0 -208 90q-215 -90 -324 -90q-183 0 -281 104q-100 104 -100 291zM252 394q0 -260 230 -260q114 0 272 57l124 676q-120 51 -275 51 q-130 0 -247 -194q-104 -177 -104 -330zM468 1390l148 94l298 -232l-111 -59z" />
<glyph unicode="&#xe1;" horiz-adv-x="1128" d="M81 380q0 272 155 474q169 217 426 219h7q185 0 402 -121l-134 -739v-4q0 -62 53 -81q30 -13 111 -13l-97 -130h-10q-155 0 -208 90q-215 -90 -324 -90q-183 0 -281 104q-100 104 -100 291zM252 394q0 -260 230 -260q114 0 272 57l124 676q-120 51 -275 51 q-130 0 -247 -194q-104 -177 -104 -330zM522 1252l299 232l146 -94l-333 -197z" />
<glyph unicode="&#xe2;" horiz-adv-x="1128" d="M81 380q0 272 155 474q169 217 426 219h7q185 0 402 -121l-134 -739v-4q0 -62 53 -81q30 -13 111 -13l-97 -130h-10q-155 0 -208 90q-215 -90 -324 -90q-183 0 -281 104q-100 104 -100 291zM252 394q0 -260 230 -260q114 0 272 57l124 676q-120 51 -275 51 q-130 0 -247 -194q-104 -177 -104 -330zM431 1295l309 170l249 -170l-93 -102l-184 114l-222 -114z" />
<glyph unicode="&#xe3;" horiz-adv-x="1128" d="M81 380q0 272 155 474q169 217 426 219h7q185 0 402 -121l-134 -739v-4q0 -62 53 -81q30 -13 111 -13l-97 -130h-10q-155 0 -208 90q-215 -90 -324 -90q-183 0 -281 104q-100 104 -100 291zM252 394q0 -260 230 -260q114 0 272 57l124 676q-120 51 -275 51 q-130 0 -247 -194q-104 -177 -104 -330zM297 1156l32 171q23 43 95 78.5t135 35.5q73 0 170 -67q94 -69 163 -69q77 0 238 136l-28 -157q-151 -128 -234 -128q-75 0 -169 69q-96 66 -166 66h-5q-61 0 -127 -39q-70 -40 -104 -96z" />
<glyph unicode="&#xe4;" horiz-adv-x="1128" d="M81 380q0 272 155 474q169 217 426 219h7q185 0 402 -121l-134 -739v-4q0 -62 53 -81q30 -13 111 -13l-97 -130h-10q-155 0 -208 90q-215 -90 -324 -90q-183 0 -281 104q-100 104 -100 291zM252 394q0 -260 230 -260q114 0 272 57l124 676q-120 51 -275 51 q-130 0 -247 -194q-104 -177 -104 -330zM404 1293q0 42 32 75q30 29 73 29t74 -29q30 -33 30 -75q0 -43 -30 -72q-31 -32 -74 -32t-73 32q-32 29 -32 72zM798 1293q0 42 32 75q31 29 73 29q43 0 74 -29q30 -33 30 -75q0 -43 -30 -72q-31 -32 -74 -32q-42 0 -73 32 q-32 29 -32 72z" />
<glyph unicode="&#xe5;" horiz-adv-x="1128" d="M81 380q0 272 155 474q169 217 426 219h7q185 0 402 -121l-134 -739v-4q0 -62 53 -81q30 -13 111 -13l-97 -130h-10q-155 0 -208 90q-215 -90 -324 -90q-183 0 -281 104q-100 104 -100 291zM252 394q0 -260 230 -260q114 0 272 57l124 676q-120 51 -275 51 q-130 0 -247 -194q-104 -177 -104 -330zM468 1238q0 117 91 209q92 89 209 89q88 0 149 -58q63 -57 63 -144q0 -120 -90 -209q-91 -92 -211 -92q-89 0 -149 58q-62 58 -62 147zM604 1259q0 -45 28 -74q26 -32 69 -32q57 0 99.5 48.5t42.5 109.5q0 44 -26 76q-25 30 -69 30 q-59 0 -101 -49q-43 -51 -43 -109z" />
<glyph unicode="&#xe6;" horiz-adv-x="1790" d="M66 296v9q0 102 62 177q55 63 179 127q104 53 246 53q118 0 229 -32q27 83 27 150q0 61 -25 92q-32 35 -83 42q-53 6 -107 11q-13 2 -27 2q-109 0 -282 -71l-43 130q218 87 354 87h28q130 -10 171 -21q83 -19 136 -81q19 -24 34 -55q161 157 364 157q169 0 273 -134 q95 -119 95 -289v-9q-2 -147 -382 -192q-130 -14 -301 -14h-79v-18q0 -110 55 -189q62 -92 160 -94h17q96 0 188 22q86 21 117 47l44 -130q-34 -28 -134 -56q-116 -32 -238 -32h-18q-167 3 -272 121l-171 -65q-148 -62 -257 -62q-32 0 -58 6q-132 30 -210 107 q-89 83 -92 204zM238 277q0 -143 201 -143q114 0 262 45l53 303q-104 24 -207 24q-272 0 -305 -189q-4 -21 -4 -40zM950 581q162 0 279 9q279 17 281 62v17q0 102 -47 170q-59 86 -168 86q-124 0 -226 -114q-87 -98 -119 -230z" />
<glyph unicode="&#xe7;" horiz-adv-x="1081" d="M98 437q0 254 189 445q190 191 441 191q111 0 329 -87l-94 -140q-111 79 -292 79q-159 0 -285 -163q-120 -148 -120 -313q0 -126 73 -217q78 -98 204 -98q142 0 311 71l42 -132q-223 -90 -374 -90q-179 0 -300 137q-124 136 -124 317zM327 -245q51 -5 96 -5q107 0 107 28 q0 7 -7 15q-25 36 -117 43l57 166h114l-34 -89q125 -31 125 -102q0 -30 -26 -65q-65 -93 -221 -93q-47 0 -88 8z" />
<glyph unicode="&#xe8;" horiz-adv-x="1097" d="M100 426q0 239 166 438q177 209 411 209q171 0 275 -132q96 -121 96 -291v-9q-2 -157 -369 -188l-407 -18v-16v-14q0 -135 37 -192q51 -79 205 -79q225 0 306 69l42 -130q-47 -41 -177 -67q-106 -21 -193 -21q-181 0 -289 133q-103 122 -103 308zM287 581l367 15 q228 20 228 56v13q0 99 -59 178q-67 82 -177 82q-126 0 -233 -114q-94 -100 -126 -230zM425 1390l148 94l298 -232l-111 -59z" />
<glyph unicode="&#xe9;" horiz-adv-x="1097" d="M100 426q0 239 166 438q177 209 411 209q171 0 275 -132q96 -121 96 -291v-9q-2 -157 -369 -188l-407 -18v-16v-14q0 -135 37 -192q51 -79 205 -79q225 0 306 69l42 -130q-47 -41 -177 -67q-106 -21 -193 -21q-181 0 -289 133q-103 122 -103 308zM287 581l367 15 q228 20 228 56v13q0 99 -59 178q-67 82 -177 82q-126 0 -233 -114q-94 -100 -126 -230zM437 1252l299 232l146 -94l-333 -197z" />
<glyph unicode="&#xea;" horiz-adv-x="1097" d="M100 426q0 239 166 438q177 209 411 209q171 0 275 -132q96 -121 96 -291v-9q-2 -157 -369 -188l-407 -18v-16v-14q0 -135 37 -192q51 -79 205 -79q225 0 306 69l42 -130q-47 -41 -177 -67q-106 -21 -193 -21q-181 0 -289 133q-103 122 -103 308zM287 581l367 15 q228 20 228 56v13q0 99 -59 178q-67 82 -177 82q-126 0 -233 -114q-94 -100 -126 -230zM388 1295l309 170l249 -170l-93 -102l-184 114l-222 -114z" />
<glyph unicode="&#xeb;" horiz-adv-x="1097" d="M100 426q0 239 166 438q177 209 411 209q171 0 275 -132q96 -121 96 -291v-9q-2 -157 -369 -188l-407 -18v-16v-14q0 -135 37 -192q51 -79 205 -79q225 0 306 69l42 -130q-47 -41 -177 -67q-106 -21 -193 -21q-181 0 -289 133q-103 122 -103 308zM287 581l367 15 q228 20 228 56v13q0 99 -59 178q-67 82 -177 82q-126 0 -233 -114q-94 -100 -126 -230zM362 1293q0 42 32 75q30 29 73 29t74 -29q30 -33 30 -75q0 -43 -30 -72q-31 -32 -74 -32t-73 32q-32 29 -32 72zM756 1293q0 42 32 75q31 29 73 29q43 0 74 -29q30 -33 30 -75 q0 -43 -30 -72q-31 -32 -74 -32q-42 0 -73 32q-32 29 -32 72z" />
<glyph unicode="&#xec;" horiz-adv-x="595" d="M159 1390l148 94l298 -232l-111 -59zM136 187l151 857l182 15l-150 -846v-4q0 -62 53 -81q30 -13 112 -13l-98 -130h-4q-246 0 -246 202z" />
<glyph unicode="&#xed;" horiz-adv-x="595" d="M160 1252l299 232l146 -94l-333 -197zM136 187l151 857l182 15l-150 -846v-4q0 -62 53 -81q30 -13 112 -13l-98 -130h-4q-246 0 -246 202z" />
<glyph unicode="&#xee;" horiz-adv-x="595" d="M122 1295l309 170l249 -170l-93 -102l-184 114l-222 -114zM136 187l151 857l182 15l-150 -846v-4q0 -62 53 -81q30 -13 112 -13l-98 -130h-4q-246 0 -246 202z" />
<glyph unicode="&#xef;" horiz-adv-x="595" d="M96 1293q0 42 32 75q30 29 73 29t74 -29q30 -33 30 -75q0 -43 -30 -72q-31 -32 -74 -32t-73 32q-32 29 -32 72zM490 1293q0 42 32 75q31 29 73 29q43 0 74 -29q30 -33 30 -75q0 -43 -30 -72q-31 -32 -74 -32q-42 0 -73 32q-32 29 -32 72zM136 187l151 857l182 15 l-150 -846v-4q0 -62 53 -81q30 -13 112 -13l-98 -130h-4q-246 0 -246 202z" />
<glyph unicode="&#xf1;" horiz-adv-x="1186" d="M75 0l185 1044l181 15l-15 -86q210 100 334 100q118 0 220 -71q115 -80 115 -193q0 -185 -87 -596q-2 -10 -2 -22q0 -76 169 -76l-98 -130q-101 0 -170 36q-80 45 -80 128q0 19 4 38l61 284q33 163 33 273q0 81 -63 132q-63 49 -157 49q-115 0 -307 -98l-144 -827h-179z M291 1156l32 171q23 43 95 78.5t135 35.5q73 0 170 -67q94 -69 163 -69q77 0 238 136l-28 -157q-151 -128 -234 -128q-75 0 -169 69q-96 66 -166 66h-5q-61 0 -127 -39q-70 -40 -104 -96z" />
<glyph unicode="&#xf2;" horiz-adv-x="1199" d="M98 431q0 246 181 444t426 198q181 0 291 -132q105 -124 105 -307q0 -244 -176 -443q-181 -206 -423 -206q-181 0 -295 135q-109 128 -109 311zM268 453q0 -123 69 -215q74 -102 195 -102q156 0 281 162q120 151 120 311q0 121 -69 214q-74 102 -193 102 q-157 0 -283 -161q-120 -148 -120 -311zM489 1390l148 94l298 -232l-111 -59z" />
<glyph unicode="&#xf3;" horiz-adv-x="1199" d="M98 431q0 246 181 444t426 198q181 0 291 -132q105 -124 105 -307q0 -244 -176 -443q-181 -206 -423 -206q-181 0 -295 135q-109 128 -109 311zM268 453q0 -123 69 -215q74 -102 195 -102q156 0 281 162q120 151 120 311q0 121 -69 214q-74 102 -193 102 q-157 0 -283 -161q-120 -148 -120 -311zM522 1252l299 232l146 -94l-333 -197z" />
<glyph unicode="&#xf4;" horiz-adv-x="1199" d="M98 431q0 246 181 444t426 198q181 0 291 -132q105 -124 105 -307q0 -244 -176 -443q-181 -206 -423 -206q-181 0 -295 135q-109 128 -109 311zM268 453q0 -123 69 -215q74 -102 195 -102q156 0 281 162q120 151 120 311q0 121 -69 214q-74 102 -193 102 q-157 0 -283 -161q-120 -148 -120 -311zM431 1295l309 170l249 -170l-93 -102l-184 114l-222 -114z" />
<glyph unicode="&#xf5;" horiz-adv-x="1199" d="M98 431q0 246 181 444t426 198q181 0 291 -132q105 -124 105 -307q0 -244 -176 -443q-181 -206 -423 -206q-181 0 -295 135q-109 128 -109 311zM268 453q0 -123 69 -215q74 -102 195 -102q156 0 281 162q120 151 120 311q0 121 -69 214q-74 102 -193 102 q-157 0 -283 -161q-120 -148 -120 -311zM333 1156l32 171q23 43 95 78.5t135 35.5q73 0 170 -67q94 -69 163 -69q77 0 238 136l-28 -157q-151 -128 -234 -128q-75 0 -169 69q-96 66 -166 66h-5q-61 0 -127 -39q-70 -40 -104 -96z" />
<glyph unicode="&#xf6;" horiz-adv-x="1199" d="M98 431q0 246 181 444t426 198q181 0 291 -132q105 -124 105 -307q0 -244 -176 -443q-181 -206 -423 -206q-181 0 -295 135q-109 128 -109 311zM268 453q0 -123 69 -215q74 -102 195 -102q156 0 281 162q120 151 120 311q0 121 -69 214q-74 102 -193 102 q-157 0 -283 -161q-120 -148 -120 -311zM425 1293q0 42 32 75q30 29 73 29t74 -29q30 -33 30 -75q0 -43 -30 -72q-31 -32 -74 -32t-73 32q-32 29 -32 72zM819 1293q0 42 32 75q31 29 73 29q43 0 74 -29q30 -33 30 -75q0 -43 -30 -72q-31 -32 -74 -32q-42 0 -73 32 q-32 29 -32 72z" />
<glyph unicode="&#xf7;" horiz-adv-x="969" d="M134 372l28 150h671l-28 -150h-671zM349 213q0 6 3 15q6 36 38 64q32 25 68 25t58 -25q14 -22 14 -47q0 -9 -2 -17q-6 -37 -36 -62.5t-66 -25.5t-58 26q-19 19 -19 47zM428 660q0 7 3 15q6 36 38 64q31 25 68 25q36 0 57 -25q15 -21 15 -46q0 -10 -2 -18 q-6 -36 -36 -61.5t-67 -25.5q-35 0 -57 26q-19 18 -19 46z" />
<glyph unicode="&#xf8;" horiz-adv-x="1201" d="M59 15l124 138q-83 122 -83 280q0 85 26 165q63 201 226 333q157 128 349 128h4q124 -2 217 -63l82 93l152 -60l-125 -145q72 -111 72 -260q0 -234 -183 -437q-183 -202 -416 -202q-118 0 -214 62l-77 -92zM279 453q0 -77 32 -152l496 563q-59 45 -134 45 q-136 0 -254 -125q-108 -117 -134 -264q-6 -34 -6 -67zM405 175q57 -39 130 -39q134 2 249 126q108 118 132 266q6 43 6 81q0 68 -21 128z" />
<glyph unicode="&#xf9;" horiz-adv-x="1171" d="M124 248q0 159 47 400l81 396l179 15l-82 -374q-48 -229 -48 -370q0 -93 57 -144q55 -53 154 -53q112 0 287 89l148 843h179l-146 -837v-4q0 -62 51 -81q30 -13 111 -13l-98 -130h-9q-157 0 -210 94q-256 -94 -352 -94q-126 0 -231 66q-118 77 -118 197zM468 1390l148 94 l298 -232l-111 -59z" />
<glyph unicode="&#xfa;" horiz-adv-x="1171" d="M124 248q0 159 47 400l81 396l179 15l-82 -374q-48 -229 -48 -370q0 -93 57 -144q55 -53 154 -53q112 0 287 89l148 843h179l-146 -837v-4q0 -62 51 -81q30 -13 111 -13l-98 -130h-9q-157 0 -210 94q-256 -94 -352 -94q-126 0 -231 66q-118 77 -118 197zM480 1252 l299 232l146 -94l-333 -197z" />
<glyph unicode="&#xfb;" horiz-adv-x="1171" d="M124 248q0 159 47 400l81 396l179 15l-82 -374q-48 -229 -48 -370q0 -93 57 -144q55 -53 154 -53q112 0 287 89l148 843h179l-146 -837v-4q0 -62 51 -81q30 -13 111 -13l-98 -130h-9q-157 0 -210 94q-256 -94 -352 -94q-126 0 -231 66q-118 77 -118 197zM409 1295 l309 170l249 -170l-93 -102l-184 114l-222 -114z" />
<glyph unicode="&#xfc;" horiz-adv-x="1171" d="M124 248q0 159 47 400l81 396l179 15l-82 -374q-48 -229 -48 -370q0 -93 57 -144q55 -53 154 -53q112 0 287 89l148 843h179l-146 -837v-4q0 -62 51 -81q30 -13 111 -13l-98 -130h-9q-157 0 -210 94q-256 -94 -352 -94q-126 0 -231 66q-118 77 -118 197zM393 1293 q0 42 32 75q30 29 73 29t74 -29q30 -33 30 -75q0 -43 -30 -72q-31 -32 -74 -32t-73 32q-32 29 -32 72zM787 1293q0 42 32 75q31 29 73 29q43 0 74 -29q30 -33 30 -75q0 -43 -30 -72q-31 -32 -74 -32q-42 0 -73 32q-32 29 -32 72z" />
<glyph unicode="&#xfd;" horiz-adv-x="1164" d="M345 1259l299 232l146 -94l-333 -197zM63 -405l95 135q140 -69 270 -69q192 0 269 120q40 63 78 278q-192 -74 -302 -74q-126 0 -231 66q-118 77 -118 197q0 159 47 400l81 396l181 15l-81 -371q-47 -230 -47 -371q0 -199 207 -199q112 0 287 89l148 843h179l-183 -1050 q-38 -222 -155 -347q-132 -145 -343 -145q-185 0 -382 87z" />
<glyph unicode="&#xff;" horiz-adv-x="1164" d="M63 -405l95 135q140 -69 270 -69q192 0 269 120q40 63 78 278q-192 -74 -302 -74q-126 0 -231 66q-118 77 -118 197q0 159 47 400l81 396l181 15l-81 -371q-47 -230 -47 -371q0 -199 207 -199q112 0 287 89l148 843h179l-183 -1050q-38 -222 -155 -347 q-132 -145 -343 -145q-185 0 -382 87zM425 1293q0 42 32 75q30 29 73 29t74 -29q30 -33 30 -75q0 -43 -30 -72q-31 -32 -74 -32t-73 32q-32 29 -32 72zM819 1293q0 42 32 75q31 29 73 29q43 0 74 -29q30 -33 30 -75q0 -43 -30 -72q-31 -32 -74 -32q-42 0 -73 32 q-32 29 -32 72z" />
<glyph unicode="&#x131;" horiz-adv-x="595" d="M136 187l151 857l182 15l-150 -846v-4q0 -62 53 -81q30 -13 112 -13l-98 -130h-4q-246 0 -246 202z" />
<glyph unicode="&#x152;" horiz-adv-x="2121" d="M115 673q0 75 9 150q38 289 268 480q222 188 500 188h1240l-12 -149h-761l-79 -448h641l-25 -148h-642l-104 -597h760l-42 -149h-1250q-252 0 -386 213q-117 183 -117 460zM281 691q0 -203 75 -348q97 -194 294 -194h321l209 1193h-322q-226 0 -396 -177 q-170 -179 -179 -421q-2 -28 -2 -53z" />
<glyph unicode="&#x153;" horiz-adv-x="1942" d="M98 433q0 244 181 442t424 198q114 0 211 -59q94 -59 143 -162q174 221 421 221q170 0 275 -132q96 -121 96 -291v-9q-2 -147 -384 -192q-130 -14 -302 -14h-79v-18q0 -112 58 -193q63 -90 173 -90q225 0 306 69l45 -130q-52 -43 -177 -69q-103 -19 -194 -19 q-254 0 -354 226q-187 -226 -441 -226q-179 0 -293 135q-109 128 -109 313zM277 451q0 -123 64 -215q72 -100 191 -100q149 0 273 162q115 153 115 309q0 123 -62 213q-68 105 -187 105q-157 0 -279 -161q-115 -150 -115 -313zM1101 581q162 0 279 9q279 17 281 62v17 q0 102 -49 170q-57 86 -165 86q-124 0 -226 -114q-87 -98 -120 -230z" />
<glyph unicode="&#x178;" d="M149 1476l211 30l256 -716l508 716l199 -30l-646 -844l-110 -632h-179l110 632zM517 1728q0 42 32 75q30 29 73 29t74 -29q30 -33 30 -75q0 -43 -30 -72q-31 -32 -74 -32t-73 32q-32 29 -32 72zM911 1728q0 42 32 75q31 29 73 29q43 0 74 -29q30 -33 30 -75 q0 -43 -30 -72q-31 -32 -74 -32q-42 0 -73 32q-32 29 -32 72z" />
<glyph unicode="&#x2c6;" horiz-adv-x="664" d="M47 1295l309 170l249 -170l-93 -102l-184 114l-222 -114z" />
<glyph unicode="&#x2da;" horiz-adv-x="660" d="M71 1301q0 118 93 207q94 87 210 87q90 0 154 -59q62 -60 62 -150q0 -116 -94 -204q-94 -89 -211 -89q-89 0 -151 59q-63 60 -63 149zM207 1319q0 -45 27 -75q28 -32 73 -32q59 0 104 48q42 50 42 110q0 44 -27 77q-28 29 -72 29q-60 0 -102 -47q-45 -49 -45 -110z" />
<glyph unicode="&#x2dc;" horiz-adv-x="908" d="M41 1156l32 171q23 43 95 78.5t135 35.5q73 0 170 -67q94 -69 163 -69q77 0 238 136l-28 -157q-151 -128 -234 -128q-75 0 -169 69q-96 66 -166 66h-5q-61 0 -127 -39q-70 -40 -104 -96z" />
<glyph unicode="&#x2013;" horiz-adv-x="1154" d="M136 484l26 148h856l-26 -148h-856z" />
<glyph unicode="&#x2014;" horiz-adv-x="1750" d="M136 484l26 148h1452l-25 -148h-1453z" />
<glyph unicode="&#x2018;" horiz-adv-x="390" d="M136 1223q0 10 2 21q7 36 58 85l204 228l51 -21l-106 -292q-38 -100 -121 -102q-43 0 -68 29q-20 22 -20 52z" />
<glyph unicode="&#x2019;" horiz-adv-x="390" d="M136 1165l106 292q39 102 122 102q43 0 69 -30q18 -21 18 -51q0 -11 -2 -21q-6 -38 -55 -85l-205 -228z" />
<glyph unicode="&#x201a;" horiz-adv-x="390" d="M32 -198l106 292q37 102 120 102q43 0 68 -30q21 -24 21 -56q0 -8 -2 -16q-8 -39 -55 -86l-205 -227z" />
<glyph unicode="&#x201c;" horiz-adv-x="715" d="M120 1223q0 10 2 21q6 36 57 85l205 228l51 -21l-107 -292q-38 -100 -121 -102q-43 0 -69 29q-18 22 -18 52zM445 1223q0 10 2 21q6 36 57 85l205 228l51 -21l-106 -292q-38 -102 -122 -104q-42 0 -68 31q-19 22 -19 52z" />
<glyph unicode="&#x201d;" horiz-adv-x="715" d="M120 1165l106 292q38 102 121 102q43 0 68 -30q20 -21 20 -51q0 -11 -2 -21q-7 -38 -57 -85l-203 -228zM445 1165l106 292q39 102 122 102q43 0 69 -30q18 -21 18 -51q0 -11 -2 -21q-6 -38 -55 -85l-205 -228z" />
<glyph unicode="&#x201e;" horiz-adv-x="715" d="M32 -198l106 292q37 102 120 102q43 0 68 -30q21 -24 21 -56q0 -8 -2 -16q-8 -39 -55 -86l-205 -227zM358 -198l106 292q36 102 119 102q43 0 69 -30q21 -24 21 -56q0 -8 -2 -16q-9 -39 -55 -86l-205 -227z" />
<glyph unicode="&#x2022;" horiz-adv-x="647" d="M104 573q0 94 79 171q79 73 177 73q81 0 134 -48q51 -49 51 -123q0 -95 -78 -171q-81 -77 -180 -77q-80 0 -131 51q-52 49 -52 124z" />
<glyph unicode="&#x2026;" horiz-adv-x="1318" d="M106 108q0 58 47 97q36 31 79 31q10 0 22 -2q106 -17 106 -126q0 -57 -47 -96q-36 -31 -81 -31q-10 0 -21 2q-105 17 -105 125zM532 108q0 58 47 97q37 31 79 31q11 0 21 -2q107 -17 107 -126q0 -57 -47 -96q-36 -31 -81 -31q-10 0 -22 2q-104 17 -104 125zM959 108 q0 58 47 97q35 31 78 31q11 0 22 -2q106 -17 106 -126q0 -57 -47 -96q-37 -31 -81 -31q-11 0 -21 2q-104 17 -104 125z" />
<glyph unicode="&#x2039;" horiz-adv-x="553" d="M96 460l26 143l362 296l6 -124l-301 -247l213 -258l-48 -121z" />
<glyph unicode="&#x203a;" horiz-adv-x="553" d="M63 275l301 245l-213 258l50 121l257 -311l-25 -143l-362 -296z" />
<glyph unicode="&#x2044;" horiz-adv-x="317" d="M-477 -266l1120 1861l154 -63l-1125 -1869z" />
<glyph unicode="&#x20ac;" horiz-adv-x="1367" d="M85 462l62 94h134q6 51 22 104h-183l61 96h158q85 187 249 305q164 117 367 126h16q137 0 379 -98l-106 -132q-41 25 -88 42q-110 42 -238 45q-111 0 -225 -89q-105 -81 -169 -199h600l-61 -96h-579q-9 -26 -22 -79v-25h530l-61 -94h-473q9 -130 95 -228 q88 -100 211 -104h16q147 0 346 79l45 -128q-259 -100 -405 -100q-18 0 -36 2q-195 19 -319 153q-126 134 -132 326h-194z" />
<glyph unicode="&#x2122;" horiz-adv-x="1361" d="M183 1397l18 94h457l-17 -94h-174l-83 -477h-109l83 477h-175zM561 931l150 560h100l79 -394l216 394h101l-42 -560l-117 -19l27 313l-166 -305h-98l-61 305l-81 -313z" />
<glyph unicode="&#xe000;" horiz-adv-x="1060" d="M0 1060h1060v-1060h-1060v1060z" />
<glyph unicode="&#xfb01;" horiz-adv-x="1458" d="M998 187l151 857l182 15l-150 -846v-4q0 -62 53 -81q30 -13 112 -13l-98 -130h-4q-246 0 -246 202zM1207 1470q0 10 2 21q9 45 47 78q34 31 79 31h4q45 0 70 -33q22 -25 22 -59q0 -8 -2 -17q-6 -44 -44.5 -76.5t-85.5 -32.5h-4q-43 0 -67 32q-21 23 -21 56zM-128 -343 l41 -2h21q117 0 166 109q20 40 56 236l161 916h-189l23 134h190q15 213 126 330q114 128 323 128q126 0 273 -63l-116 -133q-104 49 -205 49q-118 0 -186 -103q-58 -85 -64 -208h402l-25 -134h-400l-162 -916q-49 -268 -88 -332q-70 -119 -294 -156z" />
<glyph unicode="&#xfb02;" horiz-adv-x="1407" d="M980 187l219 1345l181 14l-217 -1333v-4q0 -62 53 -83q30 -11 110 -11l-98 -130h-4q-244 0 -244 202zM-128 -343l41 -2h21q117 0 166 109q20 40 56 236l161 916h-189l23 134h190q15 213 126 330q114 128 323 128q126 0 273 -63l-116 -133q-104 49 -205 49 q-118 0 -186 -103q-58 -85 -64 -208h402l-25 -134h-400l-162 -916q-49 -268 -88 -332q-70 -119 -294 -156z" />
<glyph unicode="&#xfb03;" horiz-adv-x="2320" d="M1860 187l151 857l182 15l-150 -846v-4q0 -62 53 -81q30 -13 112 -13l-98 -130h-4q-246 0 -246 202zM2069 1470q0 10 2 21q9 45 47 78q34 31 79 31h4q45 0 70 -33q22 -25 22 -59q0 -8 -2 -17q-6 -44 -44.5 -76.5t-85.5 -32.5h-4q-43 0 -67 32q-21 23 -21 56zM734 -343 l41 -2h21q117 0 166 109q20 40 56 236l161 916h-189l23 134h190q15 213 126 330q114 128 323 128q126 0 273 -63l-116 -133q-104 49 -205 49q-118 0 -186 -103q-58 -85 -64 -208h402l-25 -134h-400l-162 -916q-49 -268 -88 -332q-70 -119 -294 -156zM-128 -343l41 -2h21 q117 0 166 109q20 40 56 236l161 916h-189l23 134h190q15 213 126 330q114 128 323 128q126 0 273 -63l-116 -133q-104 49 -205 49q-118 0 -186 -103q-58 -85 -64 -208h402l-25 -134h-400l-162 -916q-49 -268 -88 -332q-70 -119 -294 -156z" />
<glyph unicode="&#xfb04;" horiz-adv-x="2269" d="M1842 187l219 1345l181 14l-217 -1333v-4q0 -62 53 -83q30 -11 110 -11l-98 -130h-4q-244 0 -244 202zM734 -343l41 -2h21q117 0 166 109q20 40 56 236l161 916h-189l23 134h190q15 213 126 330q114 128 323 128q126 0 273 -63l-116 -133q-104 49 -205 49 q-118 0 -186 -103q-58 -85 -64 -208h402l-25 -134h-400l-162 -916q-49 -268 -88 -332q-70 -119 -294 -156zM-128 -343l41 -2h21q117 0 166 109q20 40 56 236l161 916h-189l23 134h190q15 213 126 330q114 128 323 128q126 0 273 -63l-116 -133q-104 49 -205 49 q-118 0 -186 -103q-58 -85 -64 -208h402l-25 -134h-400l-162 -916q-49 -268 -88 -332q-70 -119 -294 -156z" />
</font>
</defs>
</svg>
