<?xml version="1.0" standalone="no"?>
<!DOCTYPE svg PUBLIC "-//W3C//DTD SVG 1.1//EN" "http://www.w3.org/Graphics/SVG/1.1/DTD/svg11.dtd" >
<svg xmlns="http://www.w3.org/2000/svg">
<metadata>
This is a custom SVG webfont generated by Font Squirrel.
Copyright   :  2000 Daniel Midgley fontormaccom
</metadata>
<defs>
<font id="PerspectiveSansRegular" horiz-adv-x="1215" >
<font-face units-per-em="2048" ascent="1638" descent="-410" />
<missing-glyph horiz-adv-x="532" />
<glyph unicode=" "  horiz-adv-x="532" />
<glyph unicode="&#x09;" horiz-adv-x="532" />
<glyph unicode="&#xa0;" horiz-adv-x="532" />
<glyph unicode="!" horiz-adv-x="593" d="M171 108q0 52 38 90q36 36 87 36q53 0 92 -36q36 -36 36 -90q0 -51 -36 -87q-39 -38 -92 -38q-51 0 -87 38q-38 36 -38 87zM207 841v650l179 15v-665l-16 -443l-148 -14z" />
<glyph unicode="&#x22;" horiz-adv-x="636" d="M63 1482q0 43 29 75q28 30 68 30q70 0 94 -64q4 -9 4 -23q0 -26 -13 -67l-74 -260l-58 2l-47 280q-3 15 -3 27zM384 1482q0 43 29 75q28 30 66 30q70 0 94 -64q4 -9 4 -23q0 -26 -12 -67l-75 -260l-57 2l-47 280q-2 12 -2 27z" />
<glyph unicode="#" horiz-adv-x="1250" d="M171 298v149h178v299h-178v148h178v299l149 14v-313h254v313l149 -14v-299h179v-148h-179v-299h179v-149h-179v-283l-149 -15v298h-254v-298l-149 15v283h-178zM498 447h254v299h-254v-299z" />
<glyph unicode="$" horiz-adv-x="1011" d="M106 113l71 132q36 -19 75 -32q91 -34 170 -34h29v321h-20q-154 0 -235 86q-78 81 -78 215v8q2 100 103.5 183t229.5 105v126h150l2 -128q82 -11 159 -38q65 -24 81 -41l-63 -130q-45 19 -179 57v-291q304 -6 304 -260q0 -26 -2 -53q-23 -233 -302 -294v-77h-150v60h-34 q-91 4 -200 38q-93 30 -111 47zM298 780q0 -60 28 -87q34 -35 125 -41v285q-146 -43 -153 -134v-23zM601 207q129 51 129 157v4q-2 75 -25 105q-24 27 -104 31v-297z" />
<glyph unicode="%" horiz-adv-x="1399" d="M106 920q0 37 12 70q61 179 252 179q109 0 188 -70q76 -70 83 -177v-21q0 -98 -70 -173q-81 -82 -195 -85h-4q-104 0 -183 85q-83 85 -83 192zM201 73l805 1081l122 -70l-819 -1105zM248 905q4 -57 42 -96q33 -38 84 -38h6q106 7 118 125v18q0 51 -35 96t-91 45h-8 q-53 -5 -85 -47q-31 -43 -31 -94v-9zM756 270q0 39 10 75q61 194 254 196h4q110 0 183 -74q77 -77 84 -188v-21q0 -105 -70 -183q-79 -90 -197 -92h-4q-106 0 -183 88q-81 89 -81 199zM896 260q5 -62 41 -107q34 -43 87 -43h5q109 8 119 144v16q0 58 -32 104q-39 50 -94 50 h-8q-55 -5 -87 -54q-31 -47 -31 -102v-8z" />
<glyph unicode="&#x26;" horiz-adv-x="1493" d="M106 407q0 107 71 196q49 62 166 149q27 19 79 59q-188 185 -188 331q0 17 4 33q30 144 120 220q83 70 193 72h5q127 0 226 -85q98 -87 110 -236v-12q0 -84 -85 -191q-59 -74 -132 -130l315 -336l203 204l119 -116l-215 -207l289 -271l-130 -130l-260 277 q-210 -238 -431 -238h-18q-189 8 -315 130t-126 281zM285 409q13 -113 83 -183q77 -79 199 -81h4q130 0 301 213l-316 339q-119 -75 -162 -111q-109 -90 -109 -164v-13zM392 1138q0 -83 153 -205q190 111 190 201v4q-5 72 -56 128q-51 53 -118 53h-5q-64 -2 -109 -51 q-45 -52 -55 -118v-12z" />
<glyph unicode="'" horiz-adv-x="317" d="M63 1482q0 43 29 75q28 30 68 30q70 0 94 -64q4 -9 4 -23q0 -26 -13 -67l-74 -260l-58 2l-47 280q-3 15 -3 27z" />
<glyph unicode="(" horiz-adv-x="694" d="M106 520q0 334 87.5 577t300.5 498l158 -70q-201 -239 -282 -464q-83 -228 -83 -541q0 -311 79 -534.5t275 -460.5l-151 -78q-211 257 -297 498q-87 240 -87 575z" />
<glyph unicode=")" horiz-adv-x="694" d="M43 1525l158 70q212 -258 299.5 -500.5t87.5 -574.5q0 -335 -86 -575q-87 -241 -297 -498l-152 78q197 239 275 463q79 223 79 532q0 313 -81 539q-84 225 -283 466z" />
<glyph unicode="*" horiz-adv-x="828" d="M106 1187l199 104l-199 104l69 125l185 -125l-11 207h137l-11 -209l179 127l68 -125l-190 -104l190 -104l-68 -126l-179 126l11 -224h-137l11 224l-185 -130z" />
<glyph unicode="+" horiz-adv-x="1011" d="M171 372v150h244v224h179v-224h247v-150l-247 2v-225h-179v223h-244z" />
<glyph unicode="," horiz-adv-x="530" d="M106 -224l62 332q21 126 128 126q53 0 92 -36q36 -36 36 -90q0 -45 -50 -102l-187 -260z" />
<glyph unicode="-" horiz-adv-x="813" d="M171 484v148h472v-148h-472z" />
<glyph unicode="." horiz-adv-x="466" d="M106 108q0 52 39 90q36 36 87 36q53 0 91 -36q37 -36 37 -90q0 -51 -37 -87q-38 -38 -91 -38q-51 0 -87 38q-39 36 -39 87z" />
<glyph unicode="/" horiz-adv-x="956" d="M0 -266l792 1861l165 -63l-795 -1869z" />
<glyph unicode="0" horiz-adv-x="1392" d="M85 596q0 256 179 435q177 176 433 176q255 0 433 -176q177 -179 177 -435q0 -255 -177 -432q-178 -179 -433 -179q-256 0 -433 179q-179 177 -179 432zM264 596q0 -183 126 -315t307 -132t306 132t125 315q0 184 -125 316t-306 132t-307 -132t-126 -316z" />
<glyph unicode="1" horiz-adv-x="632" d="M75 1055l210 138h177v-1193h-179v1020l-138 -98z" />
<glyph unicode="2" horiz-adv-x="1090" d="M106 0v149q435 367 520 456q124 130 124 245q0 12 -2 26q-11 93 -94 153q-73 51 -150 51q-12 0 -25 -3q-166 -18 -306 -87l-53 144q189 87 370 87q205 0 300 -73q88 -64 122 -217q8 -37 8 -77q0 -326 -558 -705h579v-149h-835z" />
<glyph unicode="3" horiz-adv-x="1036" d="M106 75l47 144q179 -95 309 -95q17 0 34 2q209 23 228 185q2 12 2 26q0 80 -55 140q-64 70 -169 70h-266v150q113 -2 177 -2q22 -1 39 -1q33 0 44 3q187 40 187 183q0 27 -6 61q-12 61 -65 98q-56 36 -135 36q-107 0 -304 -85l-55 144q236 87 370 87q130 0 225 -65 q96 -63 130 -183q15 -53 15 -106q0 -168 -125 -245q157 -66 157 -275q0 -19 -2 -38q-8 -136 -108 -222q-103 -87 -250 -102q-18 -2 -40 -2q-151 0 -384 92z" />
<glyph unicode="4" horiz-adv-x="1099" d="M63 305v148l628 740h178v-740h166v-148h-166v-305l-178 2v303h-628zM264 453h427v499z" />
<glyph unicode="5" horiz-adv-x="1101" d="M149 81l49 143q196 -100 311 -100q17 0 32 2q98 12 168 79q75 65 75 161v8q-6 154 -164 229q-11 4 -37 4q-87 0 -296 -49l-116 96l44 539h641l16 -149h-504l-29 -331q132 33 232 33q171 0 272 -100q94 -95 107 -252q2 -14 2 -30q0 -134 -104 -238q-104 -102 -275 -143 q-30 -7 -64 -7q-149 0 -360 105z" />
<glyph unicode="6" horiz-adv-x="1135" d="M106 398q0 283 237 575q218 269 496 393l90 -128q-196 -90 -309 -186q-126 -105 -228 -277q75 40 185 40q181 0 313 -114q136 -122 139 -296v-5q0 -174 -133 -292q-134 -118 -319 -123h-12q-177 0 -315 117q-144 122 -144 296zM285 413q0 -130 83 -204.5t211 -74.5 q120 0 195.5 83.5t75.5 204.5q0 113 -84 185q-85 72 -195 72q-120 0 -203 -72t-83 -194z" />
<glyph unicode="7" horiz-adv-x="1044" d="M149 -92q89 237 264 559q179 334 351 577h-593l12 149h760l16 -149q-154 -198 -361 -573q-202 -365 -308 -629z" />
<glyph unicode="8" horiz-adv-x="1099" d="M106 311v8q7 244 239 322q-187 72 -196 273v13q0 130 123 215q112 79 258 79h17q150 -5 254 -75q117 -81 124 -211v-21q0 -192 -177 -278q112 -33 179 -116q63 -85 65 -205v-4q0 -147 -132 -240q-121 -88 -291 -92h-18q-171 0 -299 84q-146 95 -146 248zM262 326 q0 -15 2 -30q13 -95 102 -149q75 -45 173 -45h17q109 4 183 60q84 60 88 155v9q0 100 -81 164q-88 68 -201 68q-117 0 -204 -74q-79 -71 -79 -158zM307 916q0 -75 61 -126q69 -57 160 -60h9q89 0 162 58q65 51 65 128v17q-6 79 -74 123.5t-158 44.5q-87 0 -153 -46.5 t-72 -125.5v-13z" />
<glyph unicode="9" horiz-adv-x="1135" d="M106 803q0 177 136 298q130 117 316 122h13q177 0 315 -117q143 -122 143 -297q0 -283 -237 -575q-217 -268 -496 -392l-89 128q195 89 309 186q125 104 228 277q-77 -41 -186 -41q-184 0 -318 120q-134 116 -134 291zM285 786q0 -113 85 -185q83 -73 195 -73 q118 0 201.5 72.5t83.5 194.5q0 130 -83.5 204t-210.5 74q-119 0 -194 -83q-77 -83 -77 -204z" />
<glyph unicode=":" horiz-adv-x="466" d="M106 108q0 52 39 90q36 36 87 36q53 0 91 -36q37 -36 37 -90q0 -51 -37 -87q-38 -38 -91 -38q-51 0 -87 38q-39 36 -39 87zM106 662q0 51 39 90q36 36 87 36q53 0 91 -36q37 -36 37 -90q0 -50 -37 -87q-38 -38 -91 -38q-51 0 -87 38q-39 37 -39 87z" />
<glyph unicode=";" horiz-adv-x="530" d="M106 -224l62 332q21 126 128 126q53 0 92 -36q36 -36 36 -90q0 -45 -50 -102l-187 -260zM171 662q0 51 38 90q36 36 87 36q53 0 92 -36q36 -36 36 -90q0 -50 -36 -87q-39 -38 -92 -38q-51 0 -87 38q-38 37 -38 87z" />
<glyph unicode="&#x3c;" horiz-adv-x="1024" d="M171 460v143l624 296l53 -124l-511 -247l517 -258l-55 -121z" />
<glyph unicode="=" horiz-adv-x="943" d="M171 215v149h602v-149h-602zM171 453v150h602v-150h-602z" />
<glyph unicode="&#x3e;" horiz-adv-x="1024" d="M171 778l55 121l628 -311v-143l-624 -296l-55 126l510 245z" />
<glyph unicode="?" horiz-adv-x="1058" d="M106 1400q239 123 392 123q18 0 32 -3q173 -14 299 -116q123 -103 123 -250q0 -144 -100 -262q-49 -55 -192 -162q-111 -82 -121 -136q-11 -53 -15 -119v-70l-179 -21v98v12q0 30 7 85q12 104 117 199l189 153q104 93 113 197v18q0 94 -83 155q-94 69 -206 69 q-167 0 -333 -110zM311 108q0 52 38 90q37 36 88 36q53 0 91 -36q37 -36 37 -90q0 -51 -37 -87q-38 -38 -91 -38q-51 0 -88 38q-38 36 -38 87z" />
<glyph unicode="@" horiz-adv-x="1294" d="M106 522q0 51 9 102q34 189 188 303q144 108 351 114h39q174 0 293 -53q160 -70 192 -228q11 -51 11 -95q0 -145 -114 -252q-79 -74 -229 -98q-26 -4 -62 -4q-38 0 -87 4l2 15q-77 -23 -118 -23q-10 0 -18 2q-73 10 -137 75q-64 61 -64 134q0 59 53 130q52 68 115 100 q43 21 161 21t203 -15l-6 -66q-8 -105 -36 -266q107 55 152 106q55 64 57 155v10q0 127 -141 193q-103 49 -232 49q-28 0 -58 -2q-170 -13 -283 -136.5t-113 -292.5q0 -223 270 -331q59 -24 135 -24q166 0 390 96l-25 -105q-231 -93 -431 -93q-83 0 -142 22 q-156 57 -242 181q-83 116 -83 272zM522 504q0 -89 124 -89q31 0 63 7l30 245q-26 6 -51 6q-127 0 -162 -130q-4 -21 -4 -39z" />
<glyph unicode="A" horiz-adv-x="1452" d="M61 15l555 1476h221l553 -1476l-185 -30l-164 443h-630l-163 -443zM469 583h515l-258 695z" />
<glyph unicode="B" horiz-adv-x="1327" d="M171 0v1491q157 23 327 23q241 0 405 -61q237 -90 237 -290q0 -111 -79 -220q-79 -108 -187 -136q152 -51 246 -157q101 -115 101 -256q0 -228 -237 -335q-175 -80 -433 -80q-189 0 -380 21zM349 145q120 -19 224 -19q466 0 466 317q0 153 -204 224q-138 49 -333 49 q-95 0 -153 -13v-558zM349 880q35 -13 109 -13q172 0 315 60q190 77 190 225q0 211 -477 211q-81 0 -137 -4v-479z" />
<glyph unicode="C" horiz-adv-x="1324" d="M106 744v12q4 317 199 530q204 224 528 224q157 0 390 -81l-26 -159q-201 91 -354 91q-42 0 -79 -9q-225 -51 -351 -214q-126 -162 -126 -384v-8q3 -232 137 -394q132 -163 366 -205q30 -7 66 -7q164 0 384 108l20 -152q-264 -113 -431 -113q-22 0 -43 2 q-298 30 -490 249q-190 215 -190 510z" />
<glyph unicode="D" horiz-adv-x="1463" d="M171 0v1491q176 23 335 23q86 0 154 -8q322 -36 513 -234q184 -192 184 -473v-17q-9 -333 -188 -550q-193 -238 -523 -247h-65q-155 0 -410 15zM349 147q102 -19 196 -19q228 0 398 108q232 150 232 546q0 315 -266 472q-198 116 -458 116q-59 0 -102 -9v-1214z" />
<glyph unicode="E" d="M171 0v1491h881l15 -149h-718v-490h641v-149h-641v-554h761l-15 -149h-924z" />
<glyph unicode="F" horiz-adv-x="1173" d="M171 0v1491h881l15 -149h-718v-490h641v-149h-641v-703h-178z" />
<glyph unicode="G" horiz-adv-x="1487" d="M106 744q0 302 195 528q191 224 483 234h25q160 0 414 -73l-28 -159q-217 85 -372 85q-24 0 -45 -2q-220 -17 -361 -201q-134 -174 -134 -412q0 -240 139 -421q147 -189 353 -189q180 0 309 138q121 130 121 293v16h-382v149h555q2 -37 2 -76q0 -296 -168 -481 q-171 -188 -441 -188q-281 0 -477 234q-188 224 -188 525z" />
<glyph unicode="H" horiz-adv-x="1459" d="M171 0v1491l178 15v-654h761v639h179v-1491l-179 -15v718h-761v-703h-178z" />
<glyph unicode="I" horiz-adv-x="520" d="M171 0v1491l178 15v-1506h-178z" />
<glyph unicode="J" horiz-adv-x="1229" d="M75 205l91 121q216 -186 362 -186h21q128 13 190 53q53 35 102 128q31 59 39 177v1008l179 -15v-987q-2 -40 -7 -78q-8 -87 -30 -136q-115 -280 -471 -298h-21q-123 0 -264 71q-110 61 -191 142z" />
<glyph unicode="K" horiz-adv-x="1286" d="M171 0v1491l178 15v-656l650 656l211 -30l-704 -703l738 -758l-207 -30l-688 708v-693h-178z" />
<glyph unicode="L" d="M171 0v1491l178 15v-1357h761l-15 -149h-924z" />
<glyph unicode="M" horiz-adv-x="1778" d="M106 15l132 1476l199 15l451 -1315l449 1315l199 -15l132 -1476l-181 -30l-87 1225l-410 -1210h-206l-410 1210l-87 -1225z" />
<glyph unicode="N" horiz-adv-x="1475" d="M173 0v1491l219 15l736 -1280v1265h175v-1491l-197 -15l-759 1301v-1301z" />
<glyph unicode="O" horiz-adv-x="1589" d="M106 744q0 308 197 532q199 230 496 230h4q286 -2 479 -222q190 -209 200 -509v-38q0 -290 -185 -511q-204 -241 -505 -241q-290 0 -489 232q-197 226 -197 527zM283 744q0 -240 154 -425q151 -185 360 -185q217 2 366 192q138 180 138 418v8q-2 242 -138 415 q-145 188 -366 190h-5q-223 0 -368 -188q-141 -181 -141 -425z" />
<glyph unicode="P" horiz-adv-x="1280" d="M171 0v1491q189 19 349 19q653 0 653 -421v-14q-4 -195 -140 -309q-139 -112 -360 -116q-120 -2 -324 -9v-641h-178zM349 795q23 0 96 -5q81 -4 128 -4q396 0 423 289q3 16 3 28q0 258 -490 258q-60 0 -160 -6v-560z" />
<glyph unicode="Q" horiz-adv-x="1631" d="M106 748q0 311 209 536q205 222 505 222h5q293 -2 496 -215q199 -216 204 -516v-13q0 -172 -55 -300q-60 -132 -196 -251l161 -168l-140 -98l-141 151q-152 -111 -341 -111q-287 0 -496 232q-211 230 -211 531zM283 744q0 -240 162 -425t372 -185q124 0 229 77l-282 305 l148 89l251 -273q177 174 181 420v12q0 232 -147 409q-151 182 -380 184h-4q-227 0 -380 -188q-150 -179 -150 -425z" />
<glyph unicode="R" horiz-adv-x="1352" d="M171 0v1491q189 19 349 19q653 0 653 -421v-14q-6 -295 -304 -392l377 -668l-196 -30l-359 667q-128 -6 -342 -11v-641h-178zM349 795q23 0 96 -5q81 -4 128 -4q396 0 423 289q3 16 3 28q0 258 -490 258q-60 0 -160 -6v-560z" />
<glyph unicode="S" horiz-adv-x="1254" d="M106 108l87 146q18 -18 150 -63q149 -51 238 -55h26q113 0 216 55q132 71 144 195q2 21 2 42q0 119 -83 196q-91 83 -256 83q-21 0 -44 -2q-19 -2 -37 -2q-179 0 -295 114q-124 116 -124 286v21q6 169 181 280q149 96 319 100h26q104 0 238 -32q132 -31 156 -53l-77 -147 q-207 83 -332 83h-17q-94 -5 -189 -62q-116 -72 -124 -175v-25q0 -122 87 -181q90 -60 252 -60h31h22q198 0 323 -126q122 -123 122 -311q0 -29 -4 -59q-38 -326 -569 -371q-19 -2 -40 -2q-111 0 -256 49q-143 47 -173 76z" />
<glyph unicode="T" horiz-adv-x="1316" d="M106 1342l16 149h1073l15 -149h-462v-1342h-179v1342h-463z" />
<glyph unicode="U" horiz-adv-x="1505" d="M171 609v882l178 15v-892q9 -88 15 -175q22 -130 92 -205q93 -98 283 -102h15q277 0 368 230q34 87 34 209v27v893h179v-895q-4 -293 -164 -458q-151 -153 -393 -153h-32q-264 11 -399 135q-164 148 -176 489z" />
<glyph unicode="V" horiz-adv-x="1452" d="M61 1476l187 30l480 -1323l482 1323l185 -30l-580 -1476h-174z" />
<glyph unicode="W" horiz-adv-x="2002" d="M43 1476l185 30l341 -1297l334 1261h196l334 -1261l341 1297l185 -30l-432 -1476h-190l-335 1260l-337 -1260h-190z" />
<glyph unicode="X" horiz-adv-x="1276" d="M63 15l476 760l-439 701l203 30l333 -584l337 584l200 -30l-436 -701l475 -760l-202 -30l-374 643l-370 -643z" />
<glyph unicode="Y" d="M21 1476l207 30l381 -716l383 716l203 -30l-496 -844v-632h-179v632z" />
<glyph unicode="Z" horiz-adv-x="1345" d="M106 149l882 1193h-852l11 149h1048l17 -141l-891 -1201h919l-15 -149h-1103z" />
<glyph unicode="[" horiz-adv-x="585" d="M171 -551v2146h372v-148h-194v-1852h194v-146h-372z" />
<glyph unicode="\" horiz-adv-x="956" d="M0 1532l164 63l793 -1861l-162 -71z" />
<glyph unicode="]" horiz-adv-x="585" d="M43 -405h193v1852h-193v148h372v-2146h-372v146z" />
<glyph unicode="^" horiz-adv-x="877" d="M106 1307l262 235h148l255 -235l-76 -82l-256 206l-256 -206z" />
<glyph unicode="_" horiz-adv-x="1680" d="M106 0h1468v-149h-1468v149z" />
<glyph unicode="`" horiz-adv-x="573" d="M63 1390l148 94l298 -232l-111 -59z" />
<glyph unicode="a" horiz-adv-x="1095" d="M85 315q0 167 132 262q118 85 292 85q125 0 233 -32q6 35 6 79q0 137 -71 181q-53 35 -195 35q-116 0 -275 -69l-67 130q205 87 346 87q439 0 439 -362l-5 -711h-178v47q-148 -64 -263 -64q-151 0 -268 90q-126 98 -126 242zM258 317q0 -183 228 -183q126 0 256 45v303 q-103 24 -214 24q-270 0 -270 -189z" />
<glyph unicode="b" horiz-adv-x="1237" d="M171 0v1532l178 14v-556q179 83 290 83h11q217 -10 342 -142q134 -141 138 -394v-21q0 -486 -465 -531q-13 -2 -29 -2q-110 0 -287 76v-59h-178zM349 191q179 -57 307 -57q92 0 134 34q90 70 128 155q34 79 34 199v13q-5 223 -166 339q-51 35 -138 35q-130 0 -299 -70 v-648z" />
<glyph unicode="c" horiz-adv-x="1081" d="M106 530q0 232 152 388q149 155 378 155q110 0 340 -87l-71 -140q-123 79 -304 79q-141 0 -233 -133q-83 -119 -83 -266q0 -142 85 -262q92 -130 231 -130q155 0 308 71l67 -132q-210 -90 -346 -90q-215 0 -368 166q-156 166 -156 381z" />
<glyph unicode="d" horiz-adv-x="1237" d="M106 516v21q4 253 136 394q126 134 344 142h10q111 0 292 -83v556l179 -14v-1532h-179v59q-179 -76 -290 -76q-15 0 -27 2q-465 45 -465 531zM285 522q0 -120 34 -199q37 -85 126 -155q43 -34 136 -34q128 0 307 57v648q-168 70 -298 70q-88 0 -139 -35 q-161 -116 -166 -339v-13z" />
<glyph unicode="e" horiz-adv-x="1182" d="M106 532q0 218 136 375q144 166 359 166q206 0 344 -159q135 -152 135 -363q0 -45 -11 -91l-771 -25q19 -132 124 -220q102 -89 236 -89q58 0 137 21q89 24 123 56l66 -130q-39 -37 -159 -67q-109 -25 -175 -25q-219 0 -382 166q-162 166 -162 385zM287 581l601 22 q-10 132 -85 222q-83 100 -209 100q-121 0 -212 -114q-86 -102 -95 -230z" />
<glyph unicode="f" horiz-adv-x="862" d="M63 916v134l191 -2q-4 34 -4 76q0 173 59 248q79 100 264 132q21 4 49 4q117 0 283 -63l-80 -138q-126 52 -222 52q-75 0 -115 -36q-60 -53 -60 -203q0 -38 5 -72l372 2v-134l-372 2v-918h-179v918z" />
<glyph unicode="g" horiz-adv-x="1258" d="M106 506v18q0 249 139 396q129 132 349 153h24q112 0 291 -89v75l180 -15v-1044q-3 -77 -14 -142q-29 -159 -99 -230q-118 -120 -299 -120q-65 0 -161 15q-88 13 -278 72l69 135l85 -31q98 -31 159 -34q24 -2 45 -2q146 0 217 50q47 31 69 86q4 16 23 109q7 26 7 56 q0 15 -3 30v57q-170 -66 -277 -66h-23q-223 17 -353 139q-146 136 -150 382zM285 496q5 -209 166 -323q55 -39 158 -39q133 0 300 57v648q-202 70 -336 70q-85 0 -126 -31q-162 -126 -162 -369v-13z" />
<glyph unicode="h" horiz-adv-x="1201" d="M171 0v1532l178 14v-573q58 29 109 49q121 49 194 51h13q134 0 266 -79q136 -82 151 -185q15 -91 15 -421q0 -164 -4 -388h-184l3 662q0 247 -260 263h-13q-107 0 -290 -98v-827h-178z" />
<glyph unicode="i" horiz-adv-x="560" d="M171 1491q0 45 34 76q31 33 76 33t77 -33q32 -31 32 -76q0 -44 -32 -76.5t-77 -32.5t-76 32q-34 33 -34 77zM191 0v1044l179 15v-1059h-179z" />
<glyph unicode="j" horiz-adv-x="589" d="M-270 -439l42 124q122 -45 218 -45q71 0 114 30q52 38 75 98q10 23 32 124q11 53 11 142v29v981l178 15v-996q-4 -104 -18 -187q-39 -204 -132 -276q-114 -90 -295 -90q-83 0 -225 51zM201 1491q0 45 33 76q32 33 77 33t77 -33q31 -31 31 -76q0 -44 -31.5 -76.5 t-76.5 -32.5t-77.5 32.5t-32.5 76.5z" />
<glyph unicode="k" horiz-adv-x="1041" d="M171 0v1532l178 14v-869l446 392l172 -49l-503 -428l577 -580l-169 -44l-523 526v-494h-178z" />
<glyph unicode="l" horiz-adv-x="520" d="M171 0v1532l178 14v-1546h-178z" />
<glyph unicode="m" horiz-adv-x="1922" d="M171 0v1044l178 15v-104q53 33 100 59q116 57 187 59h10q89 0 181 -42q89 -43 146 -109q209 151 373 151h9q143 -4 273 -83q128 -81 142 -181q15 -98 15 -468q0 -150 -2 -341h-183v662q0 135 -58 196q-60 62 -187 69h-9q-108 0 -291 -132q16 -104 16 -520q0 -124 -2 -275 h-183v662v5q0 247 -250 260h-12q-104 0 -275 -110v-817h-178z" />
<glyph unicode="n" horiz-adv-x="1192" d="M171 0v1044l178 15v-104l111 59q126 57 198 59h13q132 0 258 -79q130 -82 144 -185q16 -91 16 -421q0 -164 -5 -388h-183l2 662q0 250 -245 263h-8q-107 0 -301 -108v-817h-178z" />
<glyph unicode="o" horiz-adv-x="1199" d="M85 532q0 226 150.5 383.5t373.5 157.5q216 0 360 -161q145 -164 145 -382q0 -217 -147 -379q-154 -166 -369 -166q-212 0 -362 166q-151 166 -151 381zM264 528q0 -154 92 -268q97 -124 247 -124q151 0 245 128q87 118 87 273q0 148 -89 264q-98 124 -243 124 q-152 0 -249 -126q-90 -116 -90 -271z" />
<glyph unicode="p" horiz-adv-x="1237" d="M171 -488v1532l178 15v-75q179 89 292 89h24q465 -44 465 -500v-22q-4 -255 -131 -402q-130 -147 -349 -164h-24q-106 0 -277 66v-524zM349 193q157 -57 283 -57q98 0 154 39q78 55 123 164q41 98 43 204v13q0 115 -32 181q-36 70 -130 143q-40 32 -123 32 q-128 0 -318 -69v-650z" />
<glyph unicode="q" horiz-adv-x="1241" d="M106 551v16q0 246 139 380q123 118 326 126h8q118 0 309 -89v75l179 -15v-1261q2 -92 51 -120q36 -21 134 -21l-77 -130q-39 2 -72 6q-81 13 -119 43q-96 75 -96 191v299q-172 -66 -279 -66h-23q-220 17 -348 164t-132 402zM285 545q2 -106 43 -204q44 -109 123 -164 q55 -39 154 -39q125 0 283 58v647q-193 66 -323 66q-79 0 -120 -27q-93 -67 -128 -136q-32 -69 -32 -185v-16z" />
<glyph unicode="r" horiz-adv-x="918" d="M171 0v1044l178 15v-112q33 37 66 63q79 61 152 63h21q174 0 266 -71l-64 -135q-70 51 -223 60h-14q-102 0 -204 -116v-811h-178z" />
<glyph unicode="s" horiz-adv-x="1054" d="M106 71l71 132q153 -67 249 -67h17q130 11 222 53q108 53 108 132v5q-2 81 -40 115q-38 32 -154 32q-36 0 -87 -4q-23 -2 -45 -2q-149 0 -236 78q-93 83 -93 230q0 150 152 233q130 67 316 67q164 0 300 -87l-63 -130q-18 18 -88 43q-85 28 -156 28q-28 0 -51 -4 q-109 -24 -154 -45q-71 -39 -76 -111v-17q0 -77 58 -106q55 -28 187 -28h36h26q342 0 342 -277q0 -22 -2 -45q-16 -154 -174 -237q-132 -67 -332 -74h-8q-86 0 -201 34q-104 32 -124 52z" />
<glyph unicode="t" horiz-adv-x="790" d="M43 916v134l199 -2v255l175 30v-285l248 2v-134l-248 2v-664v-22q0 -72 41 -85q21 -7 44 -7q65 0 130 45l69 -134q-118 -66 -189 -66q-101 3 -175 47q-81 49 -87 130q-5 64 -8 64v-4v696z" />
<glyph unicode="u" horiz-adv-x="1192" d="M126 709q0 145 2 335l185 15l-2 -665q0 -119 41 -181q57 -87 204 -95h13q106 0 274 89v843h179v-1035l-179 -30v74q-53 -21 -99 -35q-116 -36 -188 -39h-13q-132 0 -256 78q-131 82 -147 185q-14 97 -14 461z" />
<glyph unicode="v" horiz-adv-x="1141" d="M66 1029l186 30l319 -876l319 876l185 -30l-417 -1029h-174z" />
<glyph unicode="w" horiz-adv-x="1721" d="M63 1029l187 30l259 -876l260 867h186l257 -867l262 876l183 -30l-354 -1029h-185l-258 823l-259 -823h-184z" />
<glyph unicode="x" horiz-adv-x="1034" d="M63 15l352 520l-334 494l183 30l254 -397l251 397l183 -30l-332 -494l351 -520l-185 -30l-268 420l-268 -420z" />
<glyph unicode="y" horiz-adv-x="1137" d="M63 1029l191 30l334 -868l315 868l170 -30l-481 -1289l-21 -70q-30 -79 -69 -109q-55 -45 -191 -49l-77 130q89 0 120 21q38 24 74 120q5 10 78 217z" />
<glyph unicode="z" horiz-adv-x="1048" d="M106 149l605 752h-575v149h746l30 -141l-611 -760h640l-14 -149h-791z" />
<glyph unicode="{" horiz-adv-x="881" d="M171 424v190q51 20 89 44q92 58 106 122q10 49 10 142q0 58 -4 133t-4 138q0 91 12 144q31 145 150 207q100 53 309 53l-36 -160q-34 8 -68 8q-81 0 -113 -37q-85 -96 -85 -270q0 -35 4 -105q2 -70 2 -106q0 -179 -79 -291q-33 -46 -106 -122q34 -32 106 -112 q85 -104 85 -280q0 -39 -4 -116t-4 -112q0 -166 81 -258q32 -36 113 -36q34 0 68 6l36 -159q-209 0 -309 53q-119 63 -148 206q-14 56 -14 156q0 55 4 126q4 73 4 132q0 91 -10 140q-21 94 -195 164z" />
<glyph unicode="|" horiz-adv-x="489" d="M171 0v1595h148v-1595h-148z" />
<glyph unicode="}" horiz-adv-x="881" d="M43 -553l36 159q34 -6 68 -6q81 0 113 36q81 92 81 258l-6 175v49q-1 15 -1 30q0 52 9 92q19 92 74 162q34 43 107 112q-34 35 -107 122q-78 112 -78 293v-9q2 0 6 179v25q0 83 -13 139q-17 83 -72 145q-32 37 -113 37q-34 0 -68 -8l-36 160q207 0 309 -53 q119 -64 150 -209q14 -55 14 -155q0 -56 -4 -125q-6 -75 -6 -133q0 -93 12 -142q21 -95 193 -166v-190q-51 -22 -89 -44q-90 -57 -104 -120q-14 -55 -14 -136q0 55 2 55q3 0 10 -292v-21q0 -126 -26 -203q-39 -110 -138.5 -163t-308.5 -53z" />
<glyph unicode="~" horiz-adv-x="908" d="M66 518v170q17 42 83 78q66 37 128 37q75 0 182.5 -68t176.5 -68q75 0 212 136v-157q-128 -128 -212 -128q-73 0 -181 67t-178 67h-5q-57 0 -119 -38q-64 -41 -87 -96z" />
<glyph unicode="&#xa1;" horiz-adv-x="551" d="M149 943q0 53 38 90q37 36 90 36q51 0 89 -36q36 -37 36 -90q0 -51 -36 -87q-38 -39 -89 -39q-53 0 -90 39q-38 36 -38 87zM187 211l16 443l149 15l14 -458v-654l-179 -15v669z" />
<glyph unicode="&#xa2;" horiz-adv-x="1079" d="M106 577v4q0 179 120 307q121 130 306 164v141h149v-136q120 -16 258 -75l-23 -126q-36 20 -73 34q-87 35 -162 43v-699q126 8 274 105l18 -124q-44 -28 -91 -49q-109 -48 -201 -60v-106h-149v110q-183 30 -302 160q-122 128 -124 307zM254 567q6 -111 85 -195 q78 -85 193 -120v670q-121 -40 -200 -134q-78 -95 -78 -205v-16z" />
<glyph unicode="&#xa3;" horiz-adv-x="1048" d="M106 0v149h16q59 0 89 15q55 29 76 88v240h-181v149h181v174q0 144 89 248q91 102 233 124q15 2 32 2q109 0 273 -90l-50 -128q-112 70 -193 70q-196 0 -204 -230v-170h372v-149h-372v-236q0 -18 -9 -55q-9 -22 -32 -52h515v-149h-835z" />
<glyph unicode="&#xa5;" horiz-adv-x="1199" d="M106 1159l190 23l302 -477l305 477l190 -23l-394 -594h244v-150h-242v-110h242v-149h-242v-156h-203v156h-242v149h242v110h-242v150h244z" />
<glyph unicode="&#xa7;" horiz-adv-x="877" d="M106 77l73 134q119 -98 201 -101h16q104 0 153 26q65 32 65 116v4q-2 57 -20 74q-23 22 -100 22q-32 0 -77 -3q-17 -2 -33 -2q-120 0 -188 70q-68 69 -68 186v9q2 81 87 152q-87 65 -87 207v9q2 97 108 172q101 69 213 73h9q93 0 260 -75l-58 -121q-111 62 -196 62h-17 q-59 -5 -110 -32q-58 -35 -60 -86v-4q0 -64 44 -89q39 -24 132 -24h31h20q265 0 265 -215q0 -19 -3 -43q-10 -100 -75 -142q80 -45 80 -164q0 -28 -5 -62q-12 -134 -136 -204q-100 -58 -236 -58h-20q-99 2 -268 109zM277 590q0 -102 158 -102q25 0 57 2q122 10 122 126v8 q-2 67 -33 83q-28 17 -108 17q-24 0 -51 -2q-52 -2 -96 -37q-45 -33 -49 -82v-13z" />
<glyph unicode="&#xa8;" horiz-adv-x="815" d="M106 1293q0 42 32 75q30 29 73 29t74 -29q30 -33 30 -75q0 -43 -30 -72q-31 -32 -74 -32t-73 32q-32 29 -32 72zM500 1293q0 42 32 75q31 29 73 29q43 0 74 -29q30 -33 30 -75q0 -43 -30 -72q-31 -32 -74 -32q-42 0 -73 32q-32 29 -32 72z" />
<glyph unicode="&#xa9;" horiz-adv-x="1160" d="M106 733q0 196 142 336q138 138 333 138q197 0 335 -138q139 -140 139 -336t-139 -335q-138 -140 -335 -140q-195 0 -333 140q-142 139 -142 335zM226 733q0 -147 104 -251q105 -106 251 -106q147 0 252 106q102 104 102 251t-102 251q-105 105 -252 105 q-146 0 -251 -105q-104 -104 -104 -251zM343 730v7q2 96 64 164q60 68 156 81q10 2 20 2q58 0 147 -39l-10 -102q-74 41 -128 41q-57 0 -90 -45q-31 -44 -31 -106t33 -105q35 -42 94 -42q58 0 139 53l9 -104q-103 -51 -167 -51h-12q-98 8 -162 81q-62 69 -62 165z" />
<glyph unicode="&#xaa;" horiz-adv-x="679" d="M106 1128q0 112 105 171q51 30 126 30q45 0 91 -10q-2 38 -11 53q-15 25 -61 25q-73 0 -175 -42l-55 96q134 55 209 55h8q119 -6 175 -57q43 -41 53 -103q2 -19 2 -117q0 -99 -4 -294h-134v12q-67 -22 -112 -22q-10 0 -18 2q-177 25 -197 170q-2 17 -2 31zM238 1124 q2 -87 111 -87q39 0 86 11l-7 157q-38 9 -74 9q-116 0 -116 -86v-4z" />
<glyph unicode="&#xab;" horiz-adv-x="926" d="M106 460v143l311 296l28 -124l-256 -247l258 -258l-28 -121zM479 460v143l311 296l27 -124l-254 -247l257 -258l-28 -121z" />
<glyph unicode="&#xac;" horiz-adv-x="1192" d="M149 484v148h895v-396h-180v248h-715z" />
<glyph unicode="&#xad;" horiz-adv-x="813" d="M171 484v148h472v-148h-472z" />
<glyph unicode="&#xae;" horiz-adv-x="1160" d="M106 733q0 196 142 336q138 138 333 138q197 0 335 -138q139 -140 139 -336t-139 -335q-138 -140 -335 -140q-195 0 -333 140q-142 139 -142 335zM226 733q0 -147 104 -251q105 -106 251 -106q147 0 252 106q102 104 102 251t-102 251q-105 105 -252 105 q-146 0 -251 -105q-104 -104 -104 -251zM426 492v479q74 9 123 9q20 0 34 -2q179 -15 179 -147v-4q-2 -83 -79 -126l109 -199l-111 -18l-100 193q-18 0 -55 -2v-183h-100zM526 773h21q107 0 113 58v4q0 32 -62 43q-27 4 -55 4h-17v-109z" />
<glyph unicode="&#xaf;" horiz-adv-x="707" d="M149 1169v150h409v-150h-409z" />
<glyph unicode="&#xb0;" horiz-adv-x="715" d="M106 1240q0 104 75 179q73 74 177 74t179 -74q72 -75 72 -179t-72 -177q-75 -73 -179 -73t-177 73q-75 73 -75 177zM240 1240q0 -53 35 -92q32 -38 83 -38t85 38q32 39 32 92t-32 93q-34 41 -85 41t-83 -41q-35 -40 -35 -93z" />
<glyph unicode="&#xb1;" horiz-adv-x="969" d="M149 -15v149h671v-149h-671zM149 415v150h245v223h179v-223h247v-150l-247 2v-226h-179v224h-245z" />
<glyph unicode="&#xb2;" horiz-adv-x="1090" d="M106 0v149q435 367 520 456q124 130 124 245q0 12 -2 26q-11 93 -94 153q-73 51 -150 51q-12 0 -25 -3q-166 -18 -306 -87l-53 144q189 87 370 87q205 0 300 -73q88 -64 122 -217q8 -37 8 -77q0 -326 -558 -705h579v-149h-835z" />
<glyph unicode="&#xb3;" horiz-adv-x="1036" d="M106 75l47 144q179 -95 309 -95q17 0 34 2q209 23 228 185q2 12 2 26q0 80 -55 140q-64 70 -169 70h-266v150q113 -2 177 -2q22 -1 39 -1q33 0 44 3q187 40 187 183q0 27 -6 61q-12 61 -65 98q-56 36 -135 36q-107 0 -304 -85l-55 144q236 87 370 87q130 0 225 -65 q96 -63 130 -183q15 -53 15 -106q0 -168 -125 -245q157 -66 157 -275q0 -19 -2 -38q-8 -136 -108 -222q-103 -87 -250 -102q-18 -2 -40 -2q-151 0 -384 92z" />
<glyph unicode="&#xb4;" horiz-adv-x="593" d="M75 1252l299 232l146 -94l-333 -197z" />
<glyph unicode="&#xb5;" horiz-adv-x="1292" d="M149 -298v1342l179 15v-868q166 -73 270 -73h18q119 6 185 89q59 74 59 187l-2 650h179q-2 -260 -2 -441t2 -284q2 -85 62 -142q57 -59 151 -59v-130h-12q-171 0 -295 116q-57 -53 -148 -87q-86 -32 -171 -32h-8q-107 3 -288 74v-357h-179z" />
<glyph unicode="&#xb6;" horiz-adv-x="1178" d="M106 874q0 359 550 359q155 0 352 -19v-1193l-150 -15v1100l-155 10v-1110l-150 15v501q-201 4 -321 94q-126 95 -126 258z" />
<glyph unicode="&#xb8;" horiz-adv-x="630" d="M149 -245q47 -5 89 -5q107 0 107 28q0 7 -6 15q-28 41 -126 43l29 166h114l-19 -89q145 -35 145 -116q0 -23 -15 -51q-52 -93 -207 -93q-45 0 -87 8z" />
<glyph unicode="&#xb9;" horiz-adv-x="632" d="M75 1055l210 138h177v-1193h-179v1020l-138 -98z" />
<glyph unicode="&#xba;" horiz-adv-x="754" d="M106 1201q0 118 79 207q77 85 191 85h6q110 -2 184.5 -83t79.5 -194v-17q0 -108 -73 -193q-79 -94 -199 -94q-112 0 -189 87q-79 87 -79 202zM232 1199q2 -71 45 -122q38 -48 95 -48h4q63 2 101 53q39 52 39 123t-38.5 122t-101.5 53h-4q-57 0 -97 -51q-43 -55 -43 -130z " />
<glyph unicode="&#xbb;" horiz-adv-x="926" d="M106 778l28 121l313 -311v-143l-311 -296l-28 126l256 245zM479 778l27 121l314 -311v-143l-311 -296l-27 126l255 245z" />
<glyph unicode="&#xbc;" horiz-adv-x="2048" d="M1013 305v148l628 740h178v-740h166v-148h-166v-305l-178 2v303h-628zM1214 453h427v499zM313 -266l792 1861l163 -63l-794 -1869zM75 1055l210 138h177v-1193h-179v1020l-138 -98z" />
<glyph unicode="&#xbd;" horiz-adv-x="2040" d="M1056 0v149q435 367 520 456q124 130 124 245q0 12 -2 26q-11 93 -94 153q-73 51 -150 51q-12 0 -25 -3q-166 -18 -306 -87l-53 144q189 87 370 87q205 0 300 -73q88 -64 122 -217q8 -37 8 -77q0 -326 -558 -705h579v-149h-835zM313 -266l792 1861l163 -63l-794 -1869z M75 1055l210 138h177v-1193h-179v1020l-138 -98z" />
<glyph unicode="&#xbe;" horiz-adv-x="2453" d="M1417 305v148l628 740h178v-740h166v-148h-166v-305l-178 2v303h-628zM1618 453h427v499zM718 -266l792 1861l163 -63l-794 -1869zM106 75l47 144q179 -95 309 -95q17 0 34 2q209 23 228 185q2 12 2 26q0 80 -55 140q-64 70 -169 70h-266v150q113 -2 177 -2q22 -1 39 -1 q33 0 44 3q187 40 187 183q0 27 -6 61q-12 61 -65 98q-56 36 -135 36q-107 0 -304 -85l-55 144q236 87 370 87q130 0 225 -65q96 -63 130 -183q15 -53 15 -106q0 -168 -125 -245q157 -66 157 -275q0 -19 -2 -38q-8 -136 -108 -222q-103 -87 -250 -102q-18 -2 -40 -2 q-151 0 -384 92z" />
<glyph unicode="&#xbf;" horiz-adv-x="1058" d="M106 -77q0 148 87 254q49 59 179 149q116 79 148 132q10 17 15 119v73l178 21v-100v-13q0 -30 -6 -83q-12 -105 -117 -194l-190 -141q-104 -87 -113 -191v-18q0 -93 87 -159q90 -66 203 -66q167 0 332 111l43 -138q-239 -126 -391 -126q-18 0 -33 2q-172 14 -294 115 q-128 106 -128 253zM494 945q0 54 38 90q37 36 90 36q51 0 89 -36q37 -39 37 -90t-37 -87q-38 -38 -89 -38q-53 0 -90 38q-38 36 -38 87z" />
<glyph unicode="&#xc0;" horiz-adv-x="1452" d="M61 15l555 1476h221l553 -1476l-185 -30l-164 443h-630l-163 -443zM469 583h515l-258 695zM474 1774l148 94l298 -232l-111 -59z" />
<glyph unicode="&#xc1;" horiz-adv-x="1452" d="M61 15l555 1476h221l553 -1476l-185 -30l-164 443h-630l-163 -443zM469 583h515l-258 695zM459 1657l299 232l146 -94l-333 -197z" />
<glyph unicode="&#xc2;" horiz-adv-x="1452" d="M61 15l555 1476h221l553 -1476l-185 -30l-164 443h-630l-163 -443zM469 583h515l-258 695zM435 1679l279 170l280 -170l-77 -102l-203 114l-202 -114z" />
<glyph unicode="&#xc3;" horiz-adv-x="1452" d="M61 15l555 1476h221l553 -1476l-185 -30l-164 443h-630l-163 -443zM417 1591v169q24 71 166 71q58 0 143 -46q83 -47 138 -47q93 0 167 93v-155q-68 -85 -167 -85q-59 0 -142 47q-86 47 -139 47q-136 0 -166 -94zM469 583h515l-258 695z" />
<glyph unicode="&#xc4;" horiz-adv-x="1452" d="M61 15l555 1476h221l553 -1476l-185 -30l-164 443h-630l-163 -443zM469 583h515l-258 695zM415 1710q0 42 32 75q30 29 73 29t74 -29q30 -33 30 -75q0 -43 -30 -72q-31 -32 -74 -32t-73 32q-32 29 -32 72zM809 1710q0 42 32 75q31 29 73 29q43 0 74 -29q30 -33 30 -75 q0 -43 -30 -72q-31 -32 -74 -32q-42 0 -73 32q-32 29 -32 72z" />
<glyph unicode="&#xc5;" horiz-adv-x="1452" d="M61 15l555 1476h221l553 -1476l-185 -30l-164 443h-630l-163 -443zM469 583h515l-258 695zM467 1714q0 105 75.5 178t179.5 73q105 0 182 -72q74 -74 74 -179q0 -104 -74 -177q-77 -74 -182 -74q-104 0 -179.5 73.5t-75.5 177.5zM601 1714q0 -53 36 -92q34 -40 85 -40 q52 0 87 40q34 39 34 92t-34 93q-35 39 -87 39q-51 0 -85 -39q-36 -40 -36 -93z" />
<glyph unicode="&#xc6;" horiz-adv-x="2185" d="M63 15l1017 1476h979l18 -149h-760v-448h640v-148h-640v-597h762l-15 -149h-934v433h-583l-313 -448zM654 581h476v714z" />
<glyph unicode="&#xc7;" horiz-adv-x="1324" d="M106 744v12q4 317 199 530q204 224 528 224q157 0 390 -81l-26 -159q-201 91 -354 91q-42 0 -79 -9q-225 -51 -351 -214q-126 -162 -126 -384v-8q3 -232 137 -394q132 -163 366 -205q30 -7 66 -7q164 0 384 108l20 -152q-264 -113 -431 -113q-22 0 -43 2 q-298 30 -490 249q-190 215 -190 510zM681 -245q47 -5 89 -5q107 0 107 28q0 7 -6 15q-28 41 -126 43l29 166h114l-19 -89q145 -35 145 -116q0 -23 -15 -51q-52 -93 -207 -93q-45 0 -87 8z" />
<glyph unicode="&#xc8;" d="M171 0v1491h881l15 -149h-718v-490h641v-149h-641v-554h761l-15 -149h-924zM389 1774l148 94l298 -232l-111 -59z" />
<glyph unicode="&#xc9;" d="M171 0v1491h881l15 -149h-718v-490h641v-149h-641v-554h761l-15 -149h-924zM394 1657l299 232l146 -94l-333 -197z" />
<glyph unicode="&#xca;" d="M171 0v1491h881l15 -149h-718v-490h641v-149h-641v-554h761l-15 -149h-924zM328 1679l279 170l280 -170l-77 -102l-203 114l-202 -114z" />
<glyph unicode="&#xcb;" d="M171 0v1491h881l15 -149h-718v-490h641v-149h-641v-554h761l-15 -149h-924zM309 1710q0 42 32 75q30 29 73 29t74 -29q30 -33 30 -75q0 -43 -30 -72q-31 -32 -74 -32t-73 32q-32 29 -32 72zM703 1710q0 42 32 75q31 29 73 29q43 0 74 -29q30 -33 30 -75q0 -43 -30 -72 q-31 -32 -74 -32q-42 0 -73 32q-32 29 -32 72z" />
<glyph unicode="&#xcc;" horiz-adv-x="520" d="M171 0v1491l178 15v-1506h-178zM42 1774l148 94l298 -232l-111 -59z" />
<glyph unicode="&#xcd;" horiz-adv-x="520" d="M171 0v1491l178 15v-1506h-178zM45 1657l299 232l146 -94l-333 -197z" />
<glyph unicode="&#xce;" horiz-adv-x="520" d="M171 0v1491l178 15v-1506h-178zM-20 1679l279 170l280 -170l-77 -102l-203 114l-202 -114z" />
<glyph unicode="&#xcf;" horiz-adv-x="520" d="M171 0v1491l178 15v-1506h-178zM-32 1710q0 42 32 75q30 29 73 29t74 -29q30 -33 30 -75q0 -43 -30 -72q-31 -32 -74 -32t-73 32q-32 29 -32 72zM362 1710q0 42 32 75q31 29 73 29q43 0 74 -29q30 -33 30 -75q0 -43 -30 -72q-31 -32 -74 -32q-42 0 -73 32q-32 29 -32 72z " />
<glyph unicode="&#xd1;" horiz-adv-x="1475" d="M173 0v1491l219 15l736 -1280v1265h175v-1491l-197 -15l-759 1301v-1301zM439 1591v169q23 71 166 71q57 0 143 -46q83 -47 138 -47q92 0 166 93v-155q-68 -85 -166 -85q-59 0 -142 47q-86 47 -139 47q-136 0 -166 -94z" />
<glyph unicode="&#xd2;" horiz-adv-x="1589" d="M106 744q0 308 197 532q199 230 496 230h4q286 -2 479 -222q190 -209 200 -509v-38q0 -290 -185 -511q-204 -241 -505 -241q-290 0 -489 232q-197 226 -197 527zM283 744q0 -240 154 -425q151 -185 360 -185q217 2 366 192q138 180 138 418v8q-2 242 -138 415 q-145 188 -366 190h-5q-223 0 -368 -188q-141 -181 -141 -425zM559 1774l148 94l298 -232l-111 -59z" />
<glyph unicode="&#xd3;" horiz-adv-x="1589" d="M106 744q0 308 197 532q199 230 496 230h4q286 -2 479 -222q190 -209 200 -509v-38q0 -290 -185 -511q-204 -241 -505 -241q-290 0 -489 232q-197 226 -197 527zM283 744q0 -240 154 -425q151 -185 360 -185q217 2 366 192q138 180 138 418v8q-2 242 -138 415 q-145 188 -366 190h-5q-223 0 -368 -188q-141 -181 -141 -425zM565 1657l299 232l146 -94l-333 -197z" />
<glyph unicode="&#xd4;" horiz-adv-x="1589" d="M106 744q0 308 197 532q199 230 496 230h4q286 -2 479 -222q190 -209 200 -509v-38q0 -290 -185 -511q-204 -241 -505 -241q-290 0 -489 232q-197 226 -197 527zM283 744q0 -240 154 -425q151 -185 360 -185q217 2 366 192q138 180 138 418v8q-2 242 -138 415 q-145 188 -366 190h-5q-223 0 -368 -188q-141 -181 -141 -425zM520 1679l279 170l280 -170l-77 -102l-203 114l-202 -114z" />
<glyph unicode="&#xd5;" horiz-adv-x="1589" d="M106 744q0 308 197 532q199 230 496 230h4q286 -2 479 -222q190 -209 200 -509v-38q0 -290 -185 -509q-204 -243 -505 -243q-290 0 -489 232q-197 226 -197 527zM283 744q0 -240 154 -425q151 -185 360 -185q217 2 366 192q138 180 138 418v8q-2 242 -138 417 q-145 186 -366 188h-5q-223 0 -368 -190q-141 -179 -141 -423zM482 1591v169q22 71 166 71q57 0 142 -46q84 -47 139 -47q91 0 166 93v-155q-69 -85 -166 -85q-60 0 -143 47q-85 47 -138 47q-136 0 -166 -94z" />
<glyph unicode="&#xd6;" horiz-adv-x="1589" d="M106 744q0 308 197 532q199 230 496 230h4q286 -2 479 -222q190 -209 200 -509v-38q0 -290 -185 -511q-204 -241 -505 -241q-290 0 -489 232q-197 226 -197 527zM283 744q0 -240 154 -425q151 -185 360 -185q217 2 366 192q138 180 138 418v8q-2 242 -138 415 q-145 188 -366 190h-5q-223 0 -368 -188q-141 -181 -141 -425zM500 1710q0 42 32 75q30 29 73 29t74 -29q30 -33 30 -75q0 -43 -30 -72q-31 -32 -74 -32t-73 32q-32 29 -32 72zM894 1710q0 42 32 75q31 29 73 29q43 0 74 -29q30 -33 30 -75q0 -43 -30 -72q-31 -32 -74 -32 q-42 0 -73 32q-32 29 -32 72z" />
<glyph unicode="&#xd8;" horiz-adv-x="1589" d="M106 754q0 296 201 522q207 230 492 230h4q177 0 341 -124l104 154l164 -60l-140 -210q200 -262 210 -491v-38q0 -288 -189 -509q-207 -243 -501 -243q-174 0 -321 100l-85 -130l-164 60l123 183q-239 275 -239 556zM283 744q2 -112 54 -220q27 -57 108 -179l616 909 q-114 101 -264 103h-5q-219 0 -368 -190q-141 -175 -141 -403v-20zM561 215q106 -81 236 -81q217 2 366 194q138 174 138 402v22q-4 98 -47 198q-14 34 -85 164z" />
<glyph unicode="&#xd9;" horiz-adv-x="1505" d="M171 609v882l178 15v-892q9 -88 15 -175q22 -130 92 -205q93 -98 283 -102h15q277 0 368 230q34 87 34 209v27v893h179v-895q-4 -293 -164 -458q-151 -153 -393 -153h-32q-264 11 -399 135q-164 148 -176 489zM516 1774l148 94l298 -232l-111 -59z" />
<glyph unicode="&#xda;" horiz-adv-x="1505" d="M171 609v882l178 15v-892q9 -88 15 -175q22 -130 92 -205q93 -98 283 -102h15q277 0 368 230q34 87 34 209v27v893h179v-895q-4 -293 -164 -458q-151 -153 -393 -153h-32q-264 11 -399 135q-164 148 -176 489zM522 1657l299 232l146 -94l-333 -197z" />
<glyph unicode="&#xdb;" horiz-adv-x="1505" d="M171 609v882l178 15v-892q9 -88 15 -175q22 -130 92 -205q93 -98 283 -102h15q277 0 368 230q34 87 34 209v27v893h179v-895q-4 -293 -164 -458q-151 -153 -393 -153h-32q-264 11 -399 135q-164 148 -176 489zM477 1679l279 170l280 -170l-77 -102l-203 114l-202 -114z " />
<glyph unicode="&#xdc;" horiz-adv-x="1505" d="M171 609v882l178 15v-892q9 -88 15 -175q22 -130 92 -205q93 -98 283 -102h15q277 0 368 230q34 87 34 209v27v893h179v-895q-4 -293 -164 -458q-151 -153 -393 -153h-32q-264 11 -399 135q-164 148 -176 489zM478 1710q0 42 32 75q30 29 73 29t74 -29q30 -33 30 -75 q0 -43 -30 -72q-31 -32 -74 -32t-73 32q-32 29 -32 72zM872 1710q0 42 32 75q31 29 73 29q43 0 74 -29q30 -33 30 -75q0 -43 -30 -72q-31 -32 -74 -32q-42 0 -73 32q-32 29 -32 72z" />
<glyph unicode="&#xdd;" d="M497 1692l299 232l146 -94l-333 -197zM21 1476l207 30l381 -716l383 716l203 -30l-496 -844v-632h-179v632z" />
<glyph unicode="&#xdf;" horiz-adv-x="1252" d="M171 6v1485q201 15 359 15q62 0 109 -2q160 -11 277 -83q141 -86 153 -228v-22q0 -121 -104 -232q-103 -106 -209 -126q136 -33 252 -140q138 -128 138 -279q-2 -390 -475 -409h-17q-75 0 -201 15l22 145q88 -19 175 -19q319 0 319 262q0 17 -2 36q-15 200 -435 294v191 q356 67 356 243q-2 205 -341 205q-78 0 -198 -15v-1342z" />
<glyph unicode="&#xe0;" horiz-adv-x="1095" d="M85 315q0 167 132 262q118 85 292 85q125 0 233 -32q6 35 6 79q0 137 -71 181q-53 35 -195 35q-116 0 -275 -69l-67 130q205 87 346 87q439 0 439 -362l-5 -711h-178v47q-148 -64 -263 -64q-151 0 -268 90q-126 98 -126 242zM258 317q0 -183 228 -183q126 0 256 45v303 q-103 24 -214 24q-270 0 -270 -189zM297 1390l148 94l298 -232l-111 -59z" />
<glyph unicode="&#xe1;" horiz-adv-x="1095" d="M85 315q0 167 132 262q118 85 292 85q125 0 233 -32q6 35 6 79q0 137 -71 181q-53 35 -195 35q-116 0 -275 -69l-67 130q205 87 346 87q439 0 439 -362l-5 -711h-178v47q-148 -64 -263 -64q-151 0 -268 90q-126 98 -126 242zM258 317q0 -183 228 -183q126 0 256 45v303 q-103 24 -214 24q-270 0 -270 -189zM309 1252l299 232l146 -94l-333 -197z" />
<glyph unicode="&#xe2;" horiz-adv-x="1095" d="M85 315q0 167 132 262q118 85 292 85q125 0 233 -32q6 35 6 79q0 137 -71 181q-53 35 -195 35q-116 0 -275 -69l-67 130q205 87 346 87q439 0 439 -362l-5 -711h-178v47q-148 -64 -263 -64q-151 0 -268 90q-126 98 -126 242zM258 317q0 -183 228 -183q126 0 256 45v303 q-103 24 -214 24q-270 0 -270 -189zM244 1295l279 170l280 -170l-77 -102l-203 114l-202 -114z" />
<glyph unicode="&#xe3;" horiz-adv-x="1095" d="M85 315q0 167 132 262q118 85 292 85q125 0 233 -32q6 35 6 79q0 137 -71 181q-53 35 -195 35q-116 0 -275 -69l-67 130q205 87 346 87q439 0 439 -362l-5 -711h-178v47q-148 -64 -263 -64q-151 0 -268 90q-126 98 -126 242zM258 317q0 -183 228 -183q126 0 256 45v303 q-103 24 -214 24q-270 0 -270 -189zM256 1175v173q18 77 138 77q51 0 121 -49t120 -49q76 0 141 98v-162q-59 -90 -141 -90q-52 0 -121 50q-73 49 -118 49q-114 0 -140 -97z" />
<glyph unicode="&#xe4;" horiz-adv-x="1095" d="M85 315q0 167 132 262q118 85 292 85q125 0 233 -32q6 35 6 79q0 137 -71 181q-53 35 -195 35q-116 0 -275 -69l-67 130q205 87 346 87q439 0 439 -362l-5 -711h-178v47q-148 -64 -263 -64q-151 0 -268 90q-126 98 -126 242zM258 317q0 -183 228 -183q126 0 256 45v303 q-103 24 -214 24q-270 0 -270 -189zM234 1293q0 42 32 75q30 29 73 29t74 -29q30 -33 30 -75q0 -43 -30 -72q-31 -32 -74 -32t-73 32q-32 29 -32 72zM628 1293q0 42 32 75q31 29 73 29q43 0 74 -29q30 -33 30 -75q0 -43 -30 -72q-31 -32 -74 -32q-42 0 -73 32q-32 29 -32 72 z" />
<glyph unicode="&#xe5;" horiz-adv-x="1095" d="M85 315q0 167 132 262q118 85 292 85q125 0 233 -32q6 35 6 79q0 137 -71 181q-53 35 -195 35q-116 0 -275 -69l-67 130q205 87 346 87q439 0 439 -362l-5 -711h-178v47q-148 -64 -263 -64q-151 0 -268 90q-126 98 -126 242zM258 317q0 -183 228 -183q126 0 256 45v303 q-103 24 -214 24q-270 0 -270 -189zM303 1280q0 92 67 157q69 67 160 67q94 0 163 -67q67 -65 67 -157q0 -93 -68 -158t-162 -65q-91 0 -160 65q-67 65 -67 158zM424 1276q0 -45 29 -77q33 -36 77 -36q47 0 79 34q30 32 30 79v4q0 47 -30 83q-32 34 -79 34q-44 0 -74 -34 q-32 -36 -32 -83v-4z" />
<glyph unicode="&#xe6;" horiz-adv-x="1833" d="M106 296v17q0 189 186 296q96 53 238 53q118 0 232 -32q7 39 7 79q0 118 -47 163q-37 35 -90 41.5t-108 11.5h-22q-106 0 -274 -69l-66 130q214 87 350 87h16q126 -6 179 -18q85 -24 149 -88q22 -22 40 -51q135 157 356 157q193 0 325 -132q131 -134 150 -329 q3 -31 3 -59q0 -49 -9 -93l-771 -25q36 -237 290 -301q32 -8 72 -8q76 0 164 30q75 25 95 47l67 -130q-24 -24 -128 -54q-120 -36 -221 -36q-230 0 -360 123l-160 -65q-151 -60 -260 -60q-168 0 -281 85t-122 230zM279 317q2 -183 227 -183q118 0 256 45v303 q-108 24 -211 24q-272 0 -272 -185v-4zM939 581l601 22q-11 139 -89 230q-79 89 -205 92h-4q-122 0 -213 -118q-82 -106 -90 -226z" />
<glyph unicode="&#xe7;" horiz-adv-x="1081" d="M106 530q0 232 152 388q149 155 378 155q110 0 340 -87l-71 -140q-123 79 -304 79q-141 0 -233 -133q-83 -119 -83 -266q0 -142 85 -262q92 -130 231 -130q155 0 308 71l67 -132q-210 -90 -346 -90q-215 0 -368 166q-156 166 -156 381zM468 -245q47 -5 89 -5 q107 0 107 28q0 7 -6 15q-28 41 -126 43l29 166h114l-19 -89q145 -35 145 -116q0 -23 -15 -51q-52 -93 -207 -93q-45 0 -87 8z" />
<glyph unicode="&#xe8;" horiz-adv-x="1182" d="M106 532q0 218 136 375q144 166 359 166q206 0 344 -159q135 -152 135 -363q0 -45 -11 -91l-771 -25q19 -132 124 -220q102 -89 236 -89q58 0 137 21q89 24 123 56l66 -130q-39 -37 -159 -67q-109 -25 -175 -25q-219 0 -382 166q-162 166 -162 385zM287 581l601 22 q-10 132 -85 222q-83 100 -209 100q-121 0 -212 -114q-86 -102 -95 -230zM340 1390l148 94l298 -232l-111 -59z" />
<glyph unicode="&#xe9;" horiz-adv-x="1182" d="M106 532q0 218 136 375q144 166 359 166q206 0 344 -159q135 -152 135 -363q0 -45 -11 -91l-771 -25q19 -132 124 -220q102 -89 236 -89q58 0 137 21q89 24 123 56l66 -130q-39 -37 -159 -67q-109 -25 -175 -25q-219 0 -382 166q-162 166 -162 385zM287 581l601 22 q-10 132 -85 222q-83 100 -209 100q-121 0 -212 -114q-86 -102 -95 -230zM373 1252l299 232l146 -94l-333 -197z" />
<glyph unicode="&#xea;" horiz-adv-x="1182" d="M106 532q0 218 136 375q144 166 359 166q206 0 344 -159q135 -152 135 -363q0 -45 -11 -91l-771 -25q19 -132 124 -220q102 -89 236 -89q58 0 137 21q89 24 123 56l66 -130q-39 -37 -159 -67q-109 -25 -175 -25q-219 0 -382 166q-162 166 -162 385zM287 581l601 22 q-10 132 -85 222q-83 100 -209 100q-121 0 -212 -114q-86 -102 -95 -230zM309 1295l279 170l280 -170l-77 -102l-203 114l-202 -114z" />
<glyph unicode="&#xeb;" horiz-adv-x="1182" d="M106 532q0 218 136 375q144 166 359 166q206 0 344 -159q135 -152 135 -363q0 -45 -11 -91l-771 -25q19 -132 124 -220q102 -89 236 -89q58 0 137 21q89 24 123 56l66 -130q-39 -37 -159 -67q-109 -25 -175 -25q-219 0 -382 166q-162 166 -162 385zM287 581l601 22 q-10 132 -85 222q-83 100 -209 100q-121 0 -212 -114q-86 -102 -95 -230zM297 1293q0 42 32 75q30 29 73 29t74 -29q30 -33 30 -75q0 -43 -30 -72q-31 -32 -74 -32t-73 32q-32 29 -32 72zM691 1293q0 42 32 75q31 29 73 29q43 0 74 -29q30 -33 30 -75q0 -43 -30 -72 q-31 -32 -74 -32q-42 0 -73 32q-32 29 -32 72z" />
<glyph unicode="&#xec;" horiz-adv-x="560" d="M171 0v1044l178 15v-1059h-178zM42 1390l148 94l298 -232l-111 -59z" />
<glyph unicode="&#xed;" horiz-adv-x="560" d="M171 0v1044l178 15v-1059h-178zM39 1252l299 232l146 -94l-333 -197z" />
<glyph unicode="&#xee;" horiz-adv-x="560" d="M171 0v1044l178 15v-1059h-178zM-10 1295l279 170l280 -170l-77 -102l-203 114l-202 -114z" />
<glyph unicode="&#xef;" horiz-adv-x="560" d="M171 0v1044l178 15v-1059h-178zM-22 1299q0 42 32 75q30 29 73 29t74 -29q30 -33 30 -75q0 -43 -30 -72q-31 -32 -74 -32t-73 32q-32 29 -32 72zM372 1299q0 42 32 75q31 29 73 29q43 0 74 -29q30 -33 30 -75q0 -43 -30 -72q-31 -32 -74 -32q-42 0 -73 32q-32 29 -32 72z " />
<glyph unicode="&#xf1;" horiz-adv-x="1192" d="M171 0v1044l178 15v-104l111 59q126 57 198 59h13q132 0 258 -79q130 -82 144 -185q16 -91 16 -421q0 -164 -5 -388h-183l2 662q0 250 -245 263h-8q-107 0 -301 -108v-817h-178zM362 1175v173q18 77 138 77q51 0 121 -49t120 -49q76 0 141 98v-162q-59 -90 -141 -90 q-52 0 -121 50q-73 49 -118 49q-114 0 -140 -97z" />
<glyph unicode="&#xf2;" horiz-adv-x="1199" d="M85 532q0 226 150.5 383.5t373.5 157.5q216 0 360 -161q145 -164 145 -382q0 -217 -147 -379q-154 -166 -369 -166q-212 0 -362 166q-151 166 -151 381zM264 528q0 -154 92 -268q97 -124 247 -124q151 0 245 128q87 118 87 273q0 148 -89 264q-98 124 -243 124 q-152 0 -249 -126q-90 -116 -90 -271zM361 1390l148 94l298 -232l-111 -59z" />
<glyph unicode="&#xf3;" horiz-adv-x="1199" d="M85 532q0 226 150.5 383.5t373.5 157.5q216 0 360 -161q145 -164 145 -382q0 -217 -147 -379q-154 -166 -369 -166q-212 0 -362 166q-151 166 -151 381zM264 528q0 -154 92 -268q97 -124 247 -124q151 0 245 128q87 118 87 273q0 148 -89 264q-98 124 -243 124 q-152 0 -249 -126q-90 -116 -90 -271zM373 1252l299 232l146 -94l-333 -197z" />
<glyph unicode="&#xf4;" horiz-adv-x="1199" d="M85 532q0 226 150.5 383.5t373.5 157.5q216 0 360 -161q145 -164 145 -382q0 -217 -147 -379q-154 -166 -369 -166q-212 0 -362 166q-151 166 -151 381zM264 528q0 -154 92 -268q97 -124 247 -124q151 0 245 128q87 118 87 273q0 148 -89 264q-98 124 -243 124 q-152 0 -249 -126q-90 -116 -90 -271zM330 1295l279 170l280 -170l-77 -102l-203 114l-202 -114z" />
<glyph unicode="&#xf5;" horiz-adv-x="1199" d="M85 532q0 226 150.5 383.5t373.5 157.5q216 0 360 -161q145 -164 145 -382q0 -217 -147 -379q-154 -166 -369 -166q-212 0 -362 166q-151 166 -151 381zM264 528q0 -154 92 -268q97 -124 247 -124q151 0 245 128q87 118 87 273q0 148 -89 264q-98 124 -243 124 q-152 0 -249 -126q-90 -116 -90 -271zM341 1175v173q18 77 138 77q51 0 121 -49t120 -49q76 0 141 98v-162q-59 -90 -141 -90q-52 0 -121 50q-73 49 -118 49q-114 0 -140 -97z" />
<glyph unicode="&#xf6;" horiz-adv-x="1199" d="M85 532q0 226 150.5 383.5t373.5 157.5q216 0 360 -161q145 -164 145 -382q0 -217 -147 -379q-154 -166 -369 -166q-212 0 -362 166q-151 166 -151 381zM264 528q0 -154 92 -268q97 -124 247 -124q151 0 245 128q87 118 87 273q0 148 -89 264q-98 124 -243 124 q-152 0 -249 -126q-90 -116 -90 -271zM297 1293q0 42 32 75q30 29 73 29t74 -29q30 -33 30 -75q0 -43 -30 -72q-31 -32 -74 -32t-73 32q-32 29 -32 72zM691 1293q0 42 32 75q31 29 73 29q43 0 74 -29q30 -33 30 -75q0 -43 -30 -72q-31 -32 -74 -32q-42 0 -73 32 q-32 29 -32 72z" />
<glyph unicode="&#xf7;" horiz-adv-x="969" d="M149 372v150h671v-150h-671zM392 228q0 36 27 64q26 25 63 25q36 0 61 -25q26 -28 26 -64q0 -37 -26 -62q-25 -26 -61 -26q-37 0 -63.5 25.5t-26.5 62.5zM392 675q0 36 27 64q26 25 63 25q36 0 61 -25q26 -28 26 -64t-26 -61q-25 -26 -61 -26q-37 0 -63.5 25.5 t-26.5 61.5z" />
<glyph unicode="&#xf8;" horiz-adv-x="1243" d="M106 535q0 209 156 368q153 156 364 156h4q126 -2 228 -63l67 93l164 -60l-101 -145q134 -164 148 -333q2 -19 2 -37q0 -201 -144 -356q-155 -173 -374 -173q-120 0 -226 62l-62 -92l-161 60l97 138q-162 188 -162 382zM285 520q5 -79 85 -219l396 563q-67 45 -142 45 q-140 0 -242 -119q-97 -113 -97 -253v-17zM486 175q63 -39 138 -39q136 2 238 122q95 112 95 254v16q-5 81 -73 209z" />
<glyph unicode="&#xf9;" horiz-adv-x="1192" d="M126 709q0 145 2 335l185 15l-2 -665q0 -119 41 -181q57 -87 204 -95h13q106 0 274 89v843h179v-1035l-179 -30v74q-53 -21 -99 -35q-116 -36 -188 -39h-13q-132 0 -256 78q-131 82 -147 185q-14 97 -14 461zM361 1390l148 94l298 -232l-111 -59z" />
<glyph unicode="&#xfa;" horiz-adv-x="1192" d="M126 709q0 145 2 335l185 15l-2 -665q0 -119 41 -181q57 -87 204 -95h13q106 0 274 89v843h179v-1035l-179 -30v74q-53 -21 -99 -35q-116 -36 -188 -39h-13q-132 0 -256 78q-131 82 -147 185q-14 97 -14 461zM373 1252l299 232l146 -94l-333 -197z" />
<glyph unicode="&#xfb;" horiz-adv-x="1192" d="M126 709q0 145 2 335l185 15l-2 -665q0 -119 41 -181q57 -87 204 -95h13q106 0 274 89v843h179v-1035l-179 -30v74q-53 -21 -99 -35q-116 -36 -188 -39h-13q-132 0 -256 78q-131 82 -147 185q-14 97 -14 461zM287 1295l279 170l280 -170l-77 -102l-203 114l-202 -114z " />
<glyph unicode="&#xfc;" horiz-adv-x="1192" d="M126 709q0 145 2 335l185 15l-2 -665q0 -119 41 -181q57 -87 204 -95h13q106 0 274 89v843h179v-1035l-179 -30v74q-53 -21 -99 -35q-116 -36 -188 -39h-13q-132 0 -256 78q-131 82 -147 185q-14 97 -14 461zM277 1293q0 42 32 75q30 29 73 29t74 -29q30 -33 30 -75 q0 -43 -30 -72q-31 -32 -74 -32t-73 32q-32 29 -32 72zM671 1293q0 42 32 75q31 29 73 29q43 0 74 -29q30 -33 30 -75q0 -43 -30 -72q-31 -32 -74 -32q-42 0 -73 32q-32 29 -32 72z" />
<glyph unicode="&#xfd;" horiz-adv-x="1137" d="M466 1259l299 232l146 -94l-333 -197zM63 1029l191 30l334 -868l315 868l170 -30l-481 -1289l-21 -70q-30 -79 -69 -109q-55 -45 -191 -49l-77 130q89 0 120 21q38 24 74 120q5 10 78 217z" />
<glyph unicode="&#xff;" horiz-adv-x="1137" d="M63 1029l191 30l334 -868l315 868l170 -30l-481 -1289l-21 -70q-30 -79 -69 -109q-55 -45 -191 -49l-77 130q89 0 120 21q38 24 74 120q5 10 78 217zM277 1293q0 42 32 75q30 29 73 29t74 -29q30 -33 30 -75q0 -43 -30 -72q-31 -32 -74 -32t-73 32q-32 29 -32 72z M671 1293q0 42 32 75q31 29 73 29q43 0 74 -29q30 -33 30 -75q0 -43 -30 -72q-31 -32 -74 -32q-42 0 -73 32q-32 29 -32 72z" />
<glyph unicode="&#x131;" horiz-adv-x="560" d="M171 0v1044l178 15v-1059h-178z" />
<glyph unicode="&#x152;" horiz-adv-x="2164" d="M106 746q0 300 205 524q205 221 492 221h1240l14 -149h-760v-448h642v-148h-642v-597h760l-14 -149h-1251q-286 0 -487 228q-199 221 -199 518zM283 744q0 -235 152 -414q151 -181 362 -181h321v1193h-321q-222 0 -366 -179q-148 -181 -148 -419z" />
<glyph unicode="&#x153;" horiz-adv-x="2028" d="M106 532q0 222 152 384q149 157 366 157h4q273 -4 413 -221q134 221 400 221h6q191 0 323 -132q132 -134 151 -329q2 -31 2 -59q0 -49 -8 -93l-771 -25q21 -137 119 -222q96 -87 241 -87q77 0 164 30q74 25 96 47l65 -130q-23 -24 -123 -56q-117 -34 -217 -34 q-307 0 -450 228q-147 -223 -421 -226h-4q-209 0 -356 164q-152 166 -152 383zM283 526q2 -158 97 -270q95 -120 238 -120h4q147 2 240 122q93 116 93 268v9q0 156 -95 272q-94 115 -238 118h-4q-145 0 -238 -118q-97 -122 -97 -281zM1134 581l600 22q-11 139 -90 230 q-79 89 -205 92h-4q-120 0 -212 -118q-81 -106 -89 -226z" />
<glyph unicode="&#x178;" d="M21 1476l207 30l381 -716l383 716l203 -30l-496 -844v-632h-179v632zM309 1710q0 42 32 75q30 29 73 29t74 -29q30 -33 30 -75q0 -43 -30 -72q-31 -32 -74 -32t-73 32q-32 29 -32 72zM703 1710q0 42 32 75q31 29 73 29q43 0 74 -29q30 -33 30 -75q0 -43 -30 -72 q-31 -32 -74 -32q-42 0 -73 32q-32 29 -32 72z" />
<glyph unicode="&#x2c6;" horiz-adv-x="664" d="M53 1295l279 170l280 -170l-77 -102l-203 114l-202 -114z" />
<glyph unicode="&#x2da;" horiz-adv-x="660" d="M75 1344q0 105 75.5 178t179.5 73q105 0 182 -72q74 -74 74 -179q0 -104 -74 -177q-77 -74 -182 -74q-104 0 -179.5 73.5t-75.5 177.5zM209 1344q0 -53 36 -92q34 -40 85 -40q52 0 87 40q34 39 34 92t-34 93q-35 39 -87 39q-51 0 -85 -39q-36 -40 -36 -93z" />
<glyph unicode="&#x2dc;" horiz-adv-x="607" d="M45 1175v173q18 77 138 77q51 0 121 -49t120 -49q76 0 141 98v-162q-59 -90 -141 -90q-52 0 -121 50q-73 49 -118 49q-114 0 -140 -97z" />
<glyph unicode="&#x2013;" horiz-adv-x="1154" d="M149 484v148h857v-148h-857z" />
<glyph unicode="&#x2014;" horiz-adv-x="1750" d="M149 484v148h1453v-148h-1453z" />
<glyph unicode="&#x2018;" horiz-adv-x="390" d="M63 1244q0 36 43 85l164 228l56 -21l-56 -292q-18 -100 -102 -102q-42 0 -72 29q-33 30 -33 73z" />
<glyph unicode="&#x2019;" horiz-adv-x="390" d="M63 1165l57 292q18 102 102 102q42 0 74 -30q30 -29 30 -72q0 -38 -41 -85l-163 -228z" />
<glyph unicode="&#x201a;" horiz-adv-x="390" d="M63 -198l57 292q18 102 102 102q42 0 74 -30q30 -30 30 -72q0 -39 -41 -86l-163 -227z" />
<glyph unicode="&#x201c;" horiz-adv-x="715" d="M63 1244q0 36 43 85l164 228l56 -21l-56 -292q-18 -100 -102 -102q-42 0 -72 29q-33 30 -33 73zM390 1244q0 36 43 85l163 228l56 -21l-56 -292q-19 -102 -102 -104q-43 0 -72 31q-32 30 -32 73z" />
<glyph unicode="&#x201d;" horiz-adv-x="715" d="M63 1165l57 292q18 102 102 102q42 0 74 -30q30 -29 30 -72q0 -38 -41 -85l-163 -228zM390 1165l55 292q19 102 102 102q43 0 75 -30q30 -29 30 -72q0 -38 -40 -85l-165 -228z" />
<glyph unicode="&#x201e;" horiz-adv-x="715" d="M63 -198l57 292q18 102 102 102q42 0 74 -30q30 -30 30 -72q0 -39 -41 -86l-163 -227zM390 -198l55 292q19 102 102 102q43 0 75 -30q30 -30 30 -72q0 -39 -40 -86l-165 -227z" />
<glyph unicode="&#x2022;" horiz-adv-x="647" d="M106 609q0 88 65 149q63 59 152 59q90 0 154 -59q64 -61 64 -149q0 -87 -64 -149t-154 -62q-89 0 -152 62q-65 62 -65 149z" />
<glyph unicode="&#x2026;" horiz-adv-x="1318" d="M106 108q0 52 39 90q36 36 87 36q53 0 91 -36q37 -36 37 -90q0 -51 -37 -87q-38 -38 -91 -38q-51 0 -87 38q-39 36 -39 87zM532 108q0 52 39 90q36 36 87 36q53 0 92 -36q36 -36 36 -90q0 -51 -36 -87q-39 -38 -92 -38q-51 0 -87 38q-39 36 -39 87zM959 108q0 52 37 89 t88 37q54 0 91 -36t37 -90q0 -51 -37 -88t-91 -37q-51 0 -88 37t-37 88z" />
<glyph unicode="&#x2039;" horiz-adv-x="553" d="M106 460v143l311 296l28 -124l-256 -247l258 -258l-28 -121z" />
<glyph unicode="&#x203a;" horiz-adv-x="553" d="M106 778l28 121l313 -311v-143l-311 -296l-28 126l256 245z" />
<glyph unicode="&#x2044;" horiz-adv-x="317" d="M-319 -266l792 1861l163 -63l-794 -1869z" />
<glyph unicode="&#x20ac;" horiz-adv-x="1367" d="M106 462l45 94h134v25q0 39 5 79h-184l45 96h158q51 187 193 305q144 117 346 126h16q138 0 396 -98l-78 -158q-44 26 -93 42q-120 45 -248 45q-111 0 -195 -73q-88 -73 -128 -189h577l-45 -96h-556q-8 -53 -8 -79q2 -8 4 -25h506l-44 -94h-450q33 -132 122 -217 q94 -92 217 -96h15q146 0 333 79l71 -147q-242 -100 -386 -100q-20 0 -37 2q-201 19 -347 153q-149 134 -189 326h-195z" />
<glyph unicode="&#x2122;" horiz-adv-x="1361" d="M149 1397v94h458v-94h-174v-477h-110v477h-174zM607 931l53 560h100l149 -394l146 394h101l56 -560l-113 -19l-28 313l-112 -305h-99l-114 305l-26 -313z" />
<glyph unicode="&#xe000;" horiz-adv-x="1060" d="M0 1060h1060v-1060h-1060v1060z" />
<glyph unicode="&#xfb01;" horiz-adv-x="1422" d="M1033 1491q0 45 34 76q31 33 76 33t77 -33q32 -31 32 -76q0 -44 -32 -76.5t-77 -32.5t-76 32q-34 33 -34 77zM1053 0v1044l179 15v-1059h-179zM63 916v134l191 -2q-4 34 -4 76q0 173 59 248q79 100 264 132q21 4 49 4q117 0 283 -63l-80 -138q-126 52 -222 52 q-75 0 -115 -36q-60 -53 -60 -203q0 -38 5 -72l372 2v-134l-372 2v-918h-179v918z" />
<glyph unicode="&#xfb02;" horiz-adv-x="1382" d="M1033 0v1532l178 14v-1546h-178zM63 916v134l191 -2q-4 34 -4 76q0 173 59 248q79 100 264 132q21 4 49 4q117 0 283 -63l-80 -138q-126 52 -222 52q-75 0 -115 -36q-60 -53 -60 -203q0 -38 5 -72l372 2v-134l-372 2v-918h-179v918z" />
<glyph unicode="&#xfb03;" horiz-adv-x="2284" d="M1895 1491q0 45 34 76q31 33 76 33t77 -33q32 -31 32 -76q0 -44 -32 -76.5t-77 -32.5t-76 32q-34 33 -34 77zM1915 0v1044l179 15v-1059h-179zM925 916v134l191 -2q-4 34 -4 76q0 173 59 248q79 100 264 132q21 4 49 4q117 0 283 -63l-80 -138q-126 52 -222 52 q-75 0 -115 -36q-60 -53 -60 -203q0 -38 5 -72l372 2v-134l-372 2v-918h-179v918zM63 916v134l191 -2q-4 34 -4 76q0 173 59 248q79 100 264 132q21 4 49 4q117 0 283 -63l-80 -138q-126 52 -222 52q-75 0 -115 -36q-60 -53 -60 -203q0 -38 5 -72l372 2v-134l-372 2v-918 h-179v918z" />
<glyph unicode="&#xfb04;" horiz-adv-x="2244" d="M1895 0v1532l178 14v-1546h-178zM925 916v134l191 -2q-4 34 -4 76q0 173 59 248q79 100 264 132q21 4 49 4q117 0 283 -63l-80 -138q-126 52 -222 52q-75 0 -115 -36q-60 -53 -60 -203q0 -38 5 -72l372 2v-134l-372 2v-918h-179v918zM63 916v134l191 -2q-4 34 -4 76 q0 173 59 248q79 100 264 132q21 4 49 4q117 0 283 -63l-80 -138q-126 52 -222 52q-75 0 -115 -36q-60 -53 -60 -203q0 -38 5 -72l372 2v-134l-372 2v-918h-179v918z" />
</font>
</defs>
</svg>
